<svg width="190" height="62" viewBox="0 0 190 62" fill="none" xmlns="http://www.w3.org/2000/svg">
<path d="M28.0909 13.0909L27.0978 13.2085L27.2023 14.0909H28.0909V13.0909ZM24.7727 7.72727L24.2241 8.56332L24.7727 7.72727ZM12.2273 6.81818L11.8312 5.89996L11.8279 5.9014L12.2273 6.81818ZM8.63636 9.56818L7.83259 8.97318L7.82763 8.98001L8.63636 9.56818ZM8.25 16.75L7.41578 17.3014L7.4212 17.3096L7.42679 17.3177L8.25 16.75ZM10.5682 18.9545L10.0357 19.8011L10.0456 19.8071L10.5682 18.9545ZM13.5227 20.3864L13.1776 21.325L13.1899 21.3294L13.5227 20.3864ZM16.3636 21.2727L16.6236 20.3071L16.6181 20.3057L16.3636 21.2727ZM21.0909 22.5455L20.8309 23.5111L20.837 23.5127L21.0909 22.5455ZM25.1364 23.8636L24.7831 24.7992L24.7863 24.8004L25.1364 23.8636ZM29.4318 26.1591L28.8523 26.9741L28.8626 26.9813L29.4318 26.1591ZM32.8409 29.8409L33.6999 29.329V29.329L32.8409 29.8409ZM32.2045 42.1818L31.3658 41.6373L31.363 41.6417L32.2045 42.1818ZM26.4773 47.0227L26.0476 46.1198L26.0454 46.1208L26.4773 47.0227ZM8.70455 47.2045L8.29894 48.1186L8.30105 48.1195L8.70455 47.2045ZM2.97727 42.7045L2.16439 43.287L2.16744 43.2912L2.97727 42.7045ZM0.636364 36V35H-0.437613L-0.361095 36.0712L0.636364 36ZM6.45455 36L7.45085 35.9141L7.37205 35H6.45455V36ZM8.22727 40.3636L7.48196 41.0305L7.49134 41.0407L8.22727 40.3636ZM12.1818 42.9091L11.8494 43.8523L11.8602 43.856L12.1818 42.9091ZM23.1591 42.6818L23.5361 43.608L23.5431 43.6051L23.1591 42.6818ZM27.2273 39.7273L28.01 40.3497L28.0136 40.3451L27.2273 39.7273ZM27.4318 31.5L28.1786 30.8349L27.4318 31.5ZM24.0227 29.1364L23.6276 30.055L24.0227 29.1364ZM19.4545 27.5455L19.1798 28.507L19.1869 28.509L19.4545 27.5455ZM13.7273 25.9091L13.451 26.8702L13.4526 26.8706L13.7273 25.9091ZM5.09091 21.4318L4.41614 22.1698H4.41614L5.09091 21.4318ZM4.02273 7L3.21453 6.41108L3.21372 6.4122L4.02273 7ZM9.75 2.45454L10.1599 3.36669L10.1625 3.3655L9.75 2.45454ZM25.8182 2.43182L25.3995 3.33996L25.4044 3.34218L25.8182 2.43182ZM31.3636 6.79545L30.5589 7.38911L30.5621 7.39335L31.3636 6.79545ZM33.5455 13.0909V14.0909H34.5782L34.5449 13.0587L33.5455 13.0909ZM29.084 12.9733C28.7765 10.3768 27.5077 8.32599 25.3214 6.89122L24.2241 8.56332C25.9166 9.67401 26.8599 11.1989 27.0978 13.2085L29.084 12.9733ZM25.3214 6.89122C23.1869 5.49048 20.6072 4.81818 17.6364 4.81818V6.81818C20.3019 6.81818 22.4798 7.41861 24.2241 8.56332L25.3214 6.89122ZM17.6364 4.81818C15.4693 4.81818 13.5264 5.16869 11.8312 5.89997L12.6234 7.73639C14.019 7.13434 15.6822 6.81818 17.6364 6.81818V4.81818ZM11.8279 5.9014C10.1614 6.62741 8.8153 7.64572 7.83262 8.9732L9.44011 10.1632C10.1847 9.1573 11.2326 8.34228 12.6267 7.73496L11.8279 5.9014ZM7.82763 8.98001C6.85099 10.3229 6.36364 11.8559 6.36364 13.5455H8.36364C8.36364 12.2653 8.72476 11.1468 9.4451 10.1564L7.82763 8.98001ZM6.36364 13.5455C6.36364 14.9519 6.70033 16.2191 7.41578 17.3014L9.08422 16.1986C8.61785 15.493 8.36364 14.6238 8.36364 13.5455H6.36364ZM7.42679 17.3177C8.11292 18.3126 8.98616 19.1408 10.0357 19.801L11.1006 18.1081C10.2714 17.5865 9.59921 16.945 9.07321 16.1823L7.42679 17.3177ZM10.0456 19.8071C11.041 20.4172 12.0853 20.9233 13.1777 21.3249L13.8678 19.4478C12.8996 19.0918 11.9742 18.6434 11.0907 18.1019L10.0456 19.8071ZM13.1899 21.3294C14.2405 21.7002 15.214 22.0042 16.1091 22.2398L16.6181 20.3057C15.786 20.0867 14.8655 19.7998 13.8555 19.4434L13.1899 21.3294ZM16.1037 22.2383L20.8309 23.5111L21.3509 21.5798L16.6236 20.3071L16.1037 22.2383ZM20.837 23.5127C22.008 23.8201 23.3227 24.2478 24.7831 24.7992L25.4896 22.9281C23.9803 22.3583 22.598 21.9072 21.3448 21.5782L20.837 23.5127ZM24.7863 24.8004C26.2012 25.3292 27.5563 26.0525 28.8523 26.974L30.0113 25.3441C28.58 24.3263 27.0715 23.5193 25.4865 22.9269L24.7863 24.8004ZM28.8626 26.9813C30.1188 27.851 31.1581 28.9706 31.9819 30.3529L33.6999 29.329C32.7358 27.7112 31.5024 26.3763 30.001 25.3369L28.8626 26.9813ZM31.9819 30.3528C32.7631 31.6638 33.1818 33.3175 33.1818 35.3636H35.1818C35.1818 33.0461 34.7066 31.018 33.6999 29.329L31.9819 30.3528ZM33.1818 35.3636C33.1818 37.6935 32.5745 39.7756 31.3658 41.6373L33.0433 42.7264C34.471 40.5274 35.1818 38.0641 35.1818 35.3636H33.1818ZM31.363 41.6417C30.1755 43.492 28.4208 44.9903 26.0476 46.1198L26.907 47.9257C29.564 46.6612 31.6276 44.9323 33.0461 42.7219L31.363 41.6417ZM26.0454 46.1208C23.7134 47.2373 20.8317 47.8182 17.3636 47.8182V49.8182C21.0471 49.8182 24.2411 49.2021 26.9091 47.9247L26.0454 46.1208ZM17.3636 47.8182C14.1355 47.8182 11.3927 47.2971 9.10805 46.2896L8.30105 48.1195C10.8952 49.2635 13.9251 49.8182 17.3636 49.8182V47.8182ZM9.11015 46.2905C6.828 45.2778 5.0659 43.8832 3.78711 42.1179L2.16744 43.2912C3.67653 45.3744 5.73261 46.9798 8.29894 48.1186L9.11015 46.2905ZM3.79014 42.1221C2.52729 40.3597 1.80355 38.305 1.63382 35.9288L-0.361095 36.0712C-0.167188 38.7859 0.669677 41.2009 2.16441 43.287L3.79014 42.1221ZM0.636364 37H6.45455V35H0.636364V37ZM5.45824 36.0859C5.6256 38.0273 6.28737 39.6952 7.48203 41.0304L8.97251 39.6968C8.10657 38.729 7.58652 37.4879 7.45085 35.9141L5.45824 36.0859ZM7.49134 41.0407C8.65754 42.3083 10.1189 43.2424 11.8495 43.8522L12.5142 41.9659C11.063 41.4546 9.88791 40.6917 8.9632 39.6866L7.49134 41.0407ZM11.8602 43.856C13.5788 44.4396 15.4156 44.7273 17.3636 44.7273V42.7273C15.6147 42.7273 13.997 42.4695 12.5034 41.9622L11.8602 43.856ZM17.3636 44.7273C19.6235 44.7273 21.6863 44.361 23.5361 43.608L22.7821 41.7556C21.2076 42.3965 19.4068 42.7273 17.3636 42.7273V44.7273ZM23.5431 43.6051C25.3872 42.8382 26.8894 41.7588 28.01 40.3497L26.4446 39.1049C25.5651 40.2109 24.3553 41.1012 22.7751 41.7585L23.5431 43.6051ZM28.0136 40.3451C29.1591 38.8872 29.7273 37.1821 29.7273 35.2727H27.7273C27.7273 36.7573 27.2955 38.0219 26.441 39.1095L28.0136 40.3451ZM29.7273 35.2727C29.7273 33.5312 29.2353 32.0214 28.1786 30.8349L26.6851 32.1651C27.3556 32.918 27.7273 33.9233 27.7273 35.2727H29.7273ZM28.1786 30.8349C27.2016 29.738 25.9372 28.8712 24.4178 28.2177L23.6276 30.055C24.9265 30.6136 25.9347 31.3226 26.6851 32.1651L28.1786 30.8349ZM24.4178 28.2177C22.9632 27.5921 21.3975 27.0473 19.7222 26.5819L19.1869 28.509C20.7844 28.9527 22.2641 29.4685 23.6276 30.055L24.4178 28.2177ZM19.7293 26.5839L14.002 24.9476L13.4526 26.8706L19.1798 28.507L19.7293 26.5839ZM14.0036 24.948C10.4704 23.9322 7.7429 22.5015 5.76568 20.6938L4.41614 22.1698C6.68135 24.2409 9.71138 25.795 13.451 26.8702L14.0036 24.948ZM5.76568 20.6938C3.87189 18.9623 2.90909 16.7024 2.90909 13.8182H0.909091C0.909091 17.2067 2.0675 20.0225 4.41614 22.1698L5.76568 20.6938ZM2.90909 13.8182C2.90909 11.4039 3.55772 9.34128 4.83174 7.5878L3.21372 6.4122C1.66955 8.5375 0.909091 11.0203 0.909091 13.8182H2.90909ZM4.83092 7.58892C6.14412 5.78675 7.91063 4.37742 10.1599 3.36668L9.34012 1.54241C6.80149 2.68318 4.74981 4.30415 3.21453 6.41108L4.83092 7.58892ZM10.1625 3.3655C12.4269 2.34011 14.9732 1.81818 17.8182 1.81818V-0.18182C14.7238 -0.18182 11.8913 0.387163 9.33749 1.54359L10.1625 3.3655ZM17.8182 1.81818C20.6977 1.81818 23.2177 2.33404 25.3995 3.33995L26.2369 1.52368C23.752 0.37808 20.9387 -0.18182 17.8182 -0.18182V1.81818ZM25.4044 3.34218C27.6009 4.34059 29.3078 5.69312 30.5589 7.3891L32.1684 6.2018C30.6922 4.20082 28.7022 2.64425 26.232 1.52145L25.4044 3.34218ZM30.5621 7.39335C31.8162 9.07467 32.4767 10.9749 32.546 13.1231L34.5449 13.0587C34.4627 10.51 33.6687 8.21321 32.1652 6.19756L30.5621 7.39335ZM33.5455 12.0909H28.0909V14.0909H33.5455V12.0909ZM57.9034 13.0909H58.9034V12.0909H57.9034V13.0909ZM57.9034 17.6364V18.6364H58.9034V17.6364H57.9034ZM39.8125 17.6364H38.8125V18.6364H39.8125V17.6364ZM39.8125 13.0909V12.0909H38.8125V13.0909H39.8125ZM45.0852 4.72727V3.72727H44.0852V4.72727H45.0852ZM50.4489 4.72727H51.4489V3.72727H50.4489V4.72727ZM51.108 41.4091L50.2429 41.9108L50.2489 41.9211L50.2551 41.9312L51.108 41.4091ZM52.8352 42.9091L52.4886 43.8471L52.5007 43.8516L52.513 43.8557L52.8352 42.9091ZM56.5398 43.1818L56.6978 44.1693L56.7169 44.1662L56.7359 44.1624L56.5398 43.1818ZM57.4489 43L58.4242 42.7792L58.2089 41.8282L57.2527 42.0194L57.4489 43ZM58.5398 47.8182L58.8909 48.7545L59.7077 48.4482L59.5151 47.5974L58.5398 47.8182ZM57.017 48.2273L56.8122 47.2485L56.8013 47.2508L56.7905 47.2533L57.017 48.2273ZM50.0852 47.4773L49.6729 48.3883L49.6764 48.3899L50.0852 47.4773ZM46.4943 44.5L45.6768 45.076L45.6812 45.0821L46.4943 44.5ZM56.9034 13.0909V17.6364H58.9034V13.0909H56.9034ZM57.9034 16.6364H39.8125V18.6364H57.9034V16.6364ZM40.8125 17.6364V13.0909H38.8125V17.6364H40.8125ZM39.8125 14.0909H57.9034V12.0909H39.8125V14.0909ZM45.0852 5.72727H50.4489V3.72727H45.0852V5.72727ZM49.4489 4.72727V38H51.4489V4.72727H49.4489ZM49.4489 38C49.4489 39.5791 49.6721 40.9265 50.2429 41.9108L51.973 40.9074C51.6651 40.3765 51.4489 39.4512 51.4489 38H49.4489ZM50.2551 41.9312C50.8059 42.8309 51.5462 43.4988 52.4886 43.8471L53.1819 41.9711C52.7304 41.8042 52.3191 41.4721 51.9608 40.8869L50.2551 41.9312ZM52.513 43.8557C53.3337 44.1351 54.193 44.2727 55.0852 44.2727V42.2727C54.4017 42.2727 53.761 42.1679 53.1575 41.9624L52.513 43.8557ZM55.0852 44.2727C55.704 44.2727 56.2468 44.2414 56.6978 44.1693L56.3818 42.1944C56.0752 42.2434 55.6482 42.2727 55.0852 42.2727V44.2727ZM56.7359 44.1624C57.1147 44.0866 57.4177 44.026 57.645 43.9806L57.2527 42.0194C57.0255 42.0649 56.7224 42.1255 56.3437 42.2012L56.7359 44.1624ZM56.4735 43.2208L57.5645 48.039L59.5151 47.5974L58.4242 42.7792L56.4735 43.2208ZM58.1887 46.8819C57.8945 46.9922 57.4437 47.1163 56.8122 47.2485L57.2219 49.2061C57.8934 49.0655 58.4578 48.9169 58.8909 48.7545L58.1887 46.8819ZM56.7905 47.2533C56.2401 47.3813 55.4971 47.4545 54.5398 47.4545V49.4545C55.5824 49.4545 56.491 49.3763 57.2436 49.2013L56.7905 47.2533ZM54.5398 47.4545C53.1728 47.4545 51.8268 47.1616 50.494 46.5646L49.6764 48.3899C51.2528 49.096 52.8764 49.4545 54.5398 49.4545V47.4545ZM50.4976 46.5663C49.2246 45.99 48.1637 45.1139 47.3074 43.9179L45.6812 45.0821C46.7341 46.5528 48.0671 47.6615 49.6729 48.3883L50.4976 46.5663ZM47.3118 43.924C46.5175 42.7966 46.0852 41.3296 46.0852 39.4545H44.0852C44.0852 41.6401 44.5924 43.5367 45.6768 45.076L47.3118 43.924ZM46.0852 39.4545V4.72727H44.0852V39.4545H46.0852ZM71.5284 46.5L71.0022 47.3504L71.0085 47.3542L71.5284 46.5ZM65.9148 40.2273L65.0143 40.6623L65.0173 40.6684L65.9148 40.2273ZM65.9148 21.3636L65.0135 20.9304L65.0125 20.9325L65.9148 21.3636ZM71.4148 14.9545L71.9607 15.7924L71.962 15.7915L71.4148 14.9545ZM85.0739 13.5455L85.3974 12.5992L85.0739 13.5455ZM89.9148 16.5L89.2308 17.2295L89.2349 17.2333L89.9148 16.5ZM93.392 21.8636L94.3244 21.5021L93.392 21.8636ZM94.6875 32.3636V33.3636H95.6875V32.3636H94.6875ZM67.7784 32.3636H66.7784V33.3636H67.7784V32.3636ZM67.7784 27.7273V26.7273H66.7784V27.7273H67.7784ZM89.233 27.7273V28.7273H90.233V27.7273H89.233ZM88.0511 22.4545L87.1567 22.9018L87.1602 22.9087L88.0511 22.4545ZM84.733 18.7955L84.2013 19.6424L84.2054 19.645L84.733 18.7955ZM74.142 19.0455L74.7024 19.8737L74.7041 19.8725L74.142 19.0455ZM70.5739 23.1364L69.6778 22.6924L70.5739 23.1364ZM70.6875 38.3409L69.7915 38.7852L69.7961 38.7941L70.6875 38.3409ZM74.5284 42.5L74.0245 43.3638L74.0305 43.3673L74.5284 42.5ZM84.0511 43.3182L84.3787 44.263L84.3859 44.2605L84.0511 43.3182ZM87.0284 41.5L87.7223 42.2201L87.729 42.2136L87.0284 41.5ZM88.9602 38.4545L89.2305 37.4918L88.3463 37.2436L88.0239 38.1034L88.9602 38.4545ZM94.142 39.9091L95.0971 40.2055L95.4017 39.224L94.4123 38.9463L94.142 39.9091ZM91.392 44.5455L92.1073 45.2443L92.1113 45.2402L91.392 44.5455ZM86.6193 47.6364L86.9778 48.5699L86.9843 48.5674L86.6193 47.6364ZM80.233 47.7273C77.0197 47.7273 74.3051 47.0195 72.0484 45.6458L71.0085 47.3542C73.6305 48.9502 76.7189 49.7273 80.233 49.7273V47.7273ZM72.0546 45.6496C69.798 44.2533 68.0517 42.3079 66.8122 39.7862L65.0173 40.6684C66.4142 43.5103 68.4104 45.7467 71.0022 47.3504L72.0546 45.6496ZM66.8152 39.7922C65.5892 37.2547 64.9602 34.2722 64.9602 30.8182H62.9602C62.9602 34.5157 63.6343 37.8059 65.0144 40.6623L66.8152 39.7922ZM64.9602 30.8182C64.9602 27.3646 65.5891 24.3649 66.8171 21.7947L65.0125 20.9325C63.6344 23.8169 62.9602 27.1203 62.9602 30.8182H64.9602ZM66.8161 21.7969C68.062 19.2047 69.7785 17.2143 71.9607 15.7924L70.8688 14.1167C68.3541 15.7553 66.4039 18.0378 65.0135 20.9304L66.8161 21.7969ZM71.962 15.7915C74.1445 14.3645 76.707 13.6364 79.6875 13.6364V11.6364C76.3649 11.6364 73.4123 12.4537 70.8675 14.1176L71.962 15.7915ZM79.6875 13.6364C81.3923 13.6364 83.0786 13.9201 84.7504 14.4917L85.3974 12.5992C83.5237 11.9587 81.6191 11.6364 79.6875 11.6364V13.6364ZM84.7504 14.4917C86.3804 15.049 87.873 15.9565 89.2308 17.2295L90.5987 15.7705C89.0475 14.3162 87.3127 13.2541 85.3974 12.5992L84.7504 14.4917ZM89.2349 17.2333C90.5577 18.4597 91.6398 20.1108 92.4597 22.2252L94.3244 21.5021C93.417 19.1619 92.1809 17.2373 90.5946 15.7667L89.2349 17.2333ZM92.4597 22.2252C93.2656 24.3036 93.6875 26.915 93.6875 30.0909H95.6875C95.6875 26.7517 95.2458 23.8783 94.3244 21.5021L92.4597 22.2252ZM93.6875 30.0909V32.3636H95.6875V30.0909H93.6875ZM94.6875 31.3636H67.7784V33.3636H94.6875V31.3636ZM68.7784 32.3636V27.7273H66.7784V32.3636H68.7784ZM67.7784 28.7273H89.233V26.7273H67.7784V28.7273ZM90.233 27.7273C90.233 25.6212 89.8108 23.7045 88.942 22.0004L87.1602 22.9087C87.8672 24.2955 88.233 25.8939 88.233 27.7273H90.233ZM88.9456 22.0073C88.0918 20.2999 86.8603 18.9395 85.2605 17.946L84.2054 19.645C85.4844 20.4393 86.465 21.5183 87.1567 22.9018L88.9456 22.0073ZM85.2646 17.9485C83.6578 16.94 81.7855 16.4545 79.6875 16.4545V18.4545C81.4683 18.4545 82.9596 18.8631 84.2013 19.6424L85.2646 17.9485ZM79.6875 16.4545C77.3781 16.4545 75.3277 17.0306 73.58 18.2184L74.7041 19.8725C76.0776 18.9391 77.7242 18.4545 79.6875 18.4545V16.4545ZM73.5817 18.2172C71.8921 19.3601 70.5875 20.8566 69.6778 22.6924L71.4699 23.5803C72.2269 22.0525 73.3011 20.8217 74.7024 19.8737L73.5817 18.2172ZM69.6778 22.6924C68.7744 24.5158 68.3239 26.4712 68.3239 28.5455H70.3239C70.3239 26.7712 70.7067 25.1206 71.4699 23.5803L69.6778 22.6924ZM68.3239 28.5455V31.6364H70.3239V28.5455H68.3239ZM68.3239 31.6364C68.3239 34.3839 68.7972 36.7798 69.7916 38.7852L71.5834 37.8967C70.7596 36.2353 70.3239 34.1616 70.3239 31.6364H68.3239ZM69.7961 38.7941C70.8004 40.7698 72.2094 42.305 74.0245 43.3638L75.0323 41.6362C73.5747 40.7859 72.4231 39.5484 71.5789 37.8878L69.7961 38.7941ZM74.0305 43.3673C75.8397 44.4058 77.9179 44.9091 80.233 44.9091V42.9091C78.2147 42.9091 76.4899 42.473 75.0263 41.6327L74.0305 43.3673ZM80.233 44.9091C81.7348 44.9091 83.1206 44.6991 84.3787 44.263L83.7236 42.3733C82.7089 42.7251 81.5493 42.9091 80.233 42.9091V44.9091ZM84.3859 44.2605C85.6639 43.8064 86.7807 43.1274 87.7223 42.2201L86.3345 40.7799C85.6094 41.4787 84.7414 42.0117 83.7164 42.3759L84.3859 44.2605ZM87.729 42.2136C88.6772 41.2826 89.3964 40.1394 89.8966 38.8057L88.0239 38.1034C87.615 39.1939 87.0463 40.0811 86.3278 40.7864L87.729 42.2136ZM88.69 39.4173L93.8718 40.8719L94.4123 38.9463L89.2305 37.4918L88.69 39.4173ZM93.187 39.6127C92.6882 41.2197 91.8528 42.629 90.6728 43.8507L92.1113 45.2402C93.507 43.7952 94.5049 42.1136 95.0971 40.2055L93.187 39.6127ZM90.6768 43.8466C89.4978 45.0534 88.0302 46.0092 86.2544 46.7053L86.9843 48.5674C88.9963 47.7787 90.7106 46.6739 92.1073 45.2443L90.6768 43.8466ZM86.2608 46.7028C84.4985 47.3796 82.4939 47.7273 80.233 47.7273V49.7273C82.6992 49.7273 84.9522 49.3477 86.9778 48.5699L86.2608 46.7028ZM102.847 61.0909H101.847V62.0909H102.847V61.0909ZM102.847 13.0909V12.0909H101.847V13.0909H102.847ZM108.028 13.0909H109.028V12.0909H108.028V13.0909ZM108.028 18.6364H107.028V19.6364H108.028V18.6364ZM108.665 18.6364V19.6364H109.207L109.503 19.1814L108.665 18.6364ZM110.301 16.3182L109.5 15.7202L109.498 15.7223L110.301 16.3182ZM113.347 13.7727L113.837 14.644L113.841 14.6422L113.347 13.7727ZM126.528 14.8409L127.077 14.0045L126.528 14.8409ZM131.778 21.0909L132.685 20.6683L131.778 21.0909ZM131.778 40.25L132.685 40.6726L132.686 40.6707L131.778 40.25ZM126.551 46.5227L127.102 47.3574L127.106 47.3548L126.551 46.5227ZM113.46 47.6136L112.97 48.4855L112.978 48.4896L113.46 47.6136ZM110.347 45.0455L109.547 45.6455L109.551 45.6515L110.347 45.0455ZM108.665 42.6364L109.515 42.11L109.222 41.6364H108.665V42.6364ZM108.21 42.6364V41.6364H107.21V42.6364H108.21ZM108.21 61.0909V62.0909H109.21V61.0909H108.21ZM109.278 37.5227L108.345 37.8808L108.346 37.8831L109.278 37.5227ZM112.665 42.2273L112.057 43.0214L112.062 43.0253L112.665 42.2273ZM123.733 42.1364L124.352 42.9219L124.353 42.921L123.733 42.1364ZM127.142 37.3182L126.207 36.9625L126.206 36.9663L127.142 37.3182ZM127.165 23.9091L126.228 24.2594L126.231 24.2681L127.165 23.9091ZM123.778 19.2045L123.164 19.9939L123.173 20.0007L123.778 19.2045ZM112.619 19.1136L113.211 19.9195L113.217 19.9156L112.619 19.1136ZM109.256 23.7045L110.188 24.0659L110.189 24.0635L109.256 23.7045ZM103.847 61.0909V13.0909H101.847V61.0909H103.847ZM102.847 14.0909H108.028V12.0909H102.847V14.0909ZM107.028 13.0909V18.6364H109.028V13.0909H107.028ZM108.028 19.6364H108.665V17.6364H108.028V19.6364ZM109.503 19.1814C109.881 18.5998 110.413 17.8456 111.104 16.914L109.498 15.7223C108.795 16.6695 108.236 17.4608 107.826 18.0914L109.503 19.1814ZM111.103 16.9161C111.712 16.0993 112.609 15.3359 113.837 14.644L112.856 12.9014C111.448 13.6944 110.314 14.628 109.5 15.7202L111.103 16.9161ZM113.841 14.6422C114.968 14.0017 116.579 13.6364 118.756 13.6364V11.6364C116.387 11.6364 114.392 12.0286 112.853 12.9033L113.841 14.6422ZM118.756 13.6364C121.52 13.6364 123.916 14.3246 125.98 15.6773L127.077 14.0045C124.656 12.4179 121.87 11.6364 118.756 11.6364V13.6364ZM125.98 15.6773C128.05 17.0341 129.684 18.966 130.872 21.5135L132.685 20.6683C131.357 17.8219 129.491 15.5871 127.077 14.0045L125.98 15.6773ZM130.872 21.5135C132.055 24.0511 132.665 27.0826 132.665 30.6364H134.665C134.665 26.8568 134.017 23.5247 132.685 20.6683L130.872 21.5135ZM132.665 30.6364C132.665 34.2216 132.055 37.2764 130.871 39.8293L132.686 40.6707C134.017 37.7994 134.665 34.4451 134.665 30.6364H132.665ZM130.872 39.8274C129.683 42.3773 128.055 44.3186 125.996 45.6907L127.106 47.3548C129.502 45.7572 131.359 43.5166 132.685 40.6726L130.872 39.8274ZM126 45.6881C123.951 47.0402 121.578 47.7273 118.847 47.7273V49.7273C121.933 49.7273 124.696 48.9446 127.102 47.3574L126 45.6881ZM118.847 47.7273C116.701 47.7273 115.091 47.37 113.943 46.7376L112.978 48.4896C114.526 49.3422 116.507 49.7273 118.847 49.7273V47.7273ZM113.95 46.7418C112.688 46.0325 111.766 45.259 111.142 44.4394L109.551 45.6515C110.381 46.741 111.536 47.6796 112.97 48.4855L113.95 46.7418ZM111.147 44.4455C110.428 43.4869 109.887 42.7105 109.515 42.11L107.815 43.1627C108.231 43.8349 108.811 44.6646 109.547 45.6455L111.147 44.4455ZM108.665 41.6364H108.21V43.6364H108.665V41.6364ZM107.21 42.6364V61.0909H109.21V42.6364H107.21ZM108.21 60.0909H102.847V62.0909H108.21V60.0909ZM107.119 30.5455C107.119 33.2779 107.52 35.7291 108.345 37.8808L110.212 37.1647C109.492 35.286 109.119 33.0857 109.119 30.5455H107.119ZM108.346 37.8831C109.175 40.0292 110.406 41.7575 112.057 43.0214L113.273 41.4331C111.954 40.4243 110.928 39.0163 110.211 37.1623L108.346 37.8831ZM112.062 43.0253C113.747 44.2974 115.786 44.9091 118.119 44.9091V42.9091C116.15 42.9091 114.552 42.3995 113.267 41.4292L112.062 43.0253ZM118.119 44.9091C120.546 44.9091 122.646 44.2659 124.352 42.9219L123.114 41.3509C121.82 42.3705 120.178 42.9091 118.119 42.9091V44.9091ZM124.353 42.921C126.027 41.5987 127.264 39.8355 128.078 37.6701L126.206 36.9663C125.505 38.8312 124.469 40.2801 123.113 41.3517L124.353 42.921ZM128.077 37.6739C128.898 35.5149 129.301 33.1346 129.301 30.5455H127.301C127.301 32.926 126.931 35.0609 126.207 36.9625L128.077 37.6739ZM129.301 30.5455C129.301 27.9879 128.906 25.6514 128.098 23.5501L126.231 24.2681C126.938 26.1062 127.301 28.1939 127.301 30.5455H129.301ZM128.101 23.5588C127.301 21.4177 126.066 19.6869 124.383 18.4084L123.173 20.0007C124.521 21.0252 125.544 22.4308 126.228 24.2594L128.101 23.5588ZM124.392 18.4152C122.684 17.0867 120.569 16.4545 118.119 16.4545V18.4545C120.215 18.4545 121.873 18.9891 123.164 19.9939L124.392 18.4152ZM118.119 16.4545C115.762 16.4545 113.709 17.0552 112.022 18.3117L113.217 19.9156C114.5 18.96 116.113 18.4545 118.119 18.4545V16.4545ZM112.027 18.3078C110.367 19.5277 109.138 21.2239 108.322 23.3456L110.189 24.0635C110.888 22.2458 111.902 20.8814 113.211 19.9195L112.027 18.3078ZM108.323 23.3431C107.512 25.4372 107.119 27.8448 107.119 30.5455H109.119C109.119 28.034 109.485 25.881 110.188 24.0659L108.323 23.3431ZM159.756 48H158.756V49H159.756V48ZM159.756 43.9091L159.017 43.2346L158.756 43.5211V43.9091H159.756ZM175.119 27.0909L174.382 26.4157L174.381 26.4165L175.119 27.0909ZM179.574 21.9545L180.354 22.5802L180.357 22.5763L179.574 21.9545ZM182.165 17.8182L181.25 17.414L181.248 17.4191L182.165 17.8182ZM181.847 9.47727L181.006 10.0197L181.011 10.0271L181.847 9.47727ZM178.665 6.70454L179.1 5.80413L178.665 6.70454ZM169.438 6.84091L169.921 7.71649L169.924 7.7146L169.438 6.84091ZM166.369 9.90909L165.494 9.42599L165.49 9.43378L166.369 9.90909ZM165.301 14.5455V15.5455H166.301V14.5455H165.301ZM159.938 14.5455H158.938V15.5455H159.938V14.5455ZM161.824 7.36364L162.677 7.88458L161.824 7.36364ZM166.96 2.54545L166.493 1.66106L166.491 1.66242L166.96 2.54545ZM181.551 2.54545L182.031 1.66804L181.551 2.54545ZM186.506 7.20454L185.653 7.7268L186.506 7.20454ZM187.369 18.75L186.434 18.3951L186.433 18.3998L187.369 18.75ZM184.188 24.1818L183.39 23.578L183.39 23.5789L184.188 24.1818ZM177.938 31.4545L178.668 32.1375L178.669 32.136L177.938 31.4545ZM167.483 42.6364L166.752 41.9534L166.483 42.2417V42.6364H167.483ZM167.483 43H166.483V44H167.483V43ZM189.119 43H190.119V42H189.119V43ZM189.119 48V49H190.119V48H189.119ZM160.756 48V43.9091H158.756V48H160.756ZM160.494 44.5835L175.858 27.7654L174.381 26.4165L159.017 43.2346L160.494 44.5835ZM175.857 27.7661C177.669 25.7866 179.169 24.0572 180.354 22.5802L178.794 21.3289C177.645 22.7609 176.176 24.4558 174.382 26.4157L175.857 27.7661ZM180.357 22.5763C181.561 21.0598 182.477 19.6064 183.082 18.2173L181.248 17.4191C180.731 18.6057 179.92 19.9099 178.791 21.3328L180.357 22.5763ZM183.079 18.2223C183.711 16.792 184.028 15.2907 184.028 13.7273H182.028C182.028 15.0123 181.77 16.2383 181.25 17.414L183.079 18.2223ZM184.028 13.7273C184.028 11.924 183.592 10.31 182.682 8.92746L181.011 10.0271C181.677 11.0385 182.028 12.2578 182.028 13.7273H184.028ZM182.687 8.9349C181.809 7.5756 180.605 6.53126 179.1 5.80413L178.23 7.60496C179.422 8.18086 180.339 8.985 181.006 10.0196L182.687 8.9349ZM179.1 5.80413C177.6 5.07941 175.933 4.72727 174.119 4.72727V6.72727C175.669 6.72727 177.033 7.02665 178.23 7.60496L179.1 5.80413ZM174.119 4.72727C172.191 4.72727 170.457 5.12876 168.951 5.96722L169.924 7.7146C171.085 7.06821 172.472 6.72727 174.119 6.72727V4.72727ZM168.954 5.96533C167.471 6.78378 166.312 7.94258 165.494 9.42601L167.245 10.3922C167.881 9.23923 168.768 8.35258 169.921 7.71649L168.954 5.96533ZM165.49 9.43378C164.685 10.9226 164.301 12.6372 164.301 14.5455H166.301C166.301 12.9083 166.629 11.532 167.249 10.3844L165.49 9.43378ZM165.301 13.5455H159.938V15.5455H165.301V13.5455ZM160.938 14.5455C160.938 11.9775 161.528 9.76867 162.677 7.88458L160.97 6.84269C159.605 9.07981 158.938 11.6588 158.938 14.5455H160.938ZM162.677 7.88458C163.84 5.97953 165.418 4.49736 167.43 3.42849L166.491 1.66242C164.169 2.89657 162.323 4.62652 160.97 6.84269L162.677 7.88458ZM167.427 3.42984C169.451 2.36159 171.735 1.81818 174.301 1.81818V-0.18182C171.443 -0.18182 168.833 0.426287 166.493 1.66107L167.427 3.42984ZM174.301 1.81818C176.884 1.81818 179.131 2.3622 181.071 3.42286L182.031 1.66804C179.759 0.425678 177.173 -0.18182 174.301 -0.18182V1.81818ZM181.071 3.42286C183.032 4.49472 184.552 5.92834 185.653 7.7268L187.358 6.68229C186.066 4.57166 184.283 2.89921 182.031 1.66804L181.071 3.42286ZM185.653 7.7268C186.749 9.51698 187.301 11.5091 187.301 13.7273H189.301C189.301 11.1576 188.656 8.8012 187.358 6.68229L185.653 7.7268ZM187.301 13.7273C187.301 15.3154 187.014 16.8695 186.434 18.3951L188.304 19.1049C188.967 17.3577 189.301 15.5634 189.301 13.7273H187.301ZM186.433 18.3998C185.872 19.8994 184.871 21.6238 183.39 23.578L184.985 24.7857C186.534 22.7398 187.654 20.843 188.306 19.1002L186.433 18.3998ZM183.39 23.5789C181.919 25.5256 179.861 27.922 177.206 30.7731L178.669 32.136C181.348 29.2598 183.456 26.8077 184.985 24.7847L183.39 23.5789ZM177.207 30.7716L166.752 41.9534L168.213 43.3193L178.668 32.1375L177.207 30.7716ZM166.483 42.6364V43H168.483V42.6364H166.483ZM167.483 44H189.119V42H167.483V44ZM188.119 43V48H190.119V43H188.119ZM189.119 47H159.756V49H189.119V47Z" fill="url(#paint0_linear_299_767)"/>
<defs>
<linearGradient id="paint0_linear_299_767" x1="208" y1="-18" x2="208" y2="68" gradientUnits="userSpaceOnUse">
<stop stop-color="#EF89FF"/>
<stop offset="0.791667" stop-color="#A502BF" stop-opacity="0"/>
</linearGradient>
</defs>
</svg>
