<svg width="38" height="38" viewBox="0 0 38 38" fill="none" xmlns="http://www.w3.org/2000/svg">
<circle cx="19" cy="19" r="18.5" fill="#101010" stroke="#353535"/>
<path d="M23.25 12H15.75C13.6789 12 12 13.6789 12 15.75V23.25C12 25.3211 13.6789 27 15.75 27H23.25C25.3211 27 27 25.3211 27 23.25V15.75C27 13.6789 25.3211 12 23.25 12Z" stroke="#BFBFBF" stroke-linecap="round" stroke-linejoin="round"/>
<path d="M22.4998 19.0275C22.5923 19.6517 22.4857 20.2892 22.1951 20.8493C21.9045 21.4094 21.4446 21.8636 20.881 22.1473C20.3174 22.431 19.6786 22.5297 19.0556 22.4295C18.4326 22.3292 17.8571 22.0351 17.4109 21.5889C16.9647 21.1427 16.6706 20.5672 16.5703 19.9442C16.4701 19.3212 16.5688 18.6825 16.8525 18.1188C17.1362 17.5552 17.5904 17.0953 18.1505 16.8047C18.7106 16.5141 19.3481 16.4075 19.9723 16.5C20.609 16.5945 21.1984 16.8911 21.6536 17.3463C22.1087 17.8014 22.4054 18.3909 22.4998 19.0275Z" stroke="#BFBFBF" stroke-linecap="round" stroke-linejoin="round"/>
<path d="M23.625 15.375H23.6323" stroke="#BFBFBF" stroke-linecap="round" stroke-linejoin="round"/>
</svg>
