<svg width="38" height="38" viewBox="0 0 38 38" fill="none" xmlns="http://www.w3.org/2000/svg">
<circle cx="19" cy="19" r="18.5" fill="#101010" stroke="#353535"/>
<path d="M28.3909 12.0084C27.5904 12.5731 26.704 13.0049 25.766 13.2874C25.2625 12.7085 24.5934 12.2982 23.8492 12.112C23.1049 11.9258 22.3215 11.9726 21.6047 12.2462C20.888 12.5198 20.2725 13.0069 19.8416 13.6416C19.4107 14.2764 19.1852 15.0281 19.1954 15.7953V16.6312C17.7264 16.6693 16.2707 16.3435 14.958 15.6828C13.6454 15.0221 12.5165 14.047 11.6719 12.8444C11.6719 12.8444 8.3281 20.3679 15.8516 23.7117C14.13 24.8803 12.0791 25.4663 10 25.3836C17.5235 29.5633 26.719 25.3836 26.719 15.7702C26.7182 15.5373 26.6958 15.305 26.6521 15.0763C27.5053 14.235 28.1073 13.1726 28.3909 12.0084Z" stroke="#BFBFBF" stroke-linecap="round" stroke-linejoin="round"/>
</svg>
