<svg width="95" height="95" viewBox="0 0 95 95" fill="none" xmlns="http://www.w3.org/2000/svg">
<circle cx="47.5" cy="47.5" r="47.5" fill="url(#paint0_radial_305_1155)" fill-opacity="0.3"/>
<circle cx="47.5" cy="47.5" r="38" stroke="url(#paint1_linear_305_1155)" stroke-opacity="0.3"/>
<circle cx="47.5" cy="47.5" r="24" stroke="url(#paint2_linear_305_1155)" stroke-opacity="0.3"/>
<path d="M48 50.836C49.6569 50.836 51 49.5086 51 47.8711C51 46.2337 49.6569 44.9062 48 44.9062C46.3431 44.9062 45 46.2337 45 47.8711C45 49.5086 46.3431 50.836 48 50.836Z" stroke="#EA6AFE" stroke-linecap="round" stroke-linejoin="round"/>
<path d="M55.4 50.836C55.2669 51.1341 55.2272 51.4648 55.286 51.7854C55.3448 52.106 55.4995 52.4018 55.73 52.6347L55.79 52.694C55.976 52.8776 56.1235 53.0956 56.2241 53.3355C56.3248 53.5755 56.3766 53.8327 56.3766 54.0924C56.3766 54.3522 56.3248 54.6094 56.2241 54.8494C56.1235 55.0893 55.976 55.3073 55.79 55.4909C55.6043 55.6747 55.3837 55.8204 55.1409 55.9199C54.8981 56.0194 54.6378 56.0706 54.375 56.0706C54.1122 56.0706 53.8519 56.0194 53.6091 55.9199C53.3663 55.8204 53.1457 55.6747 52.96 55.4909L52.9 55.4316C52.6643 55.2037 52.365 55.0509 52.0406 54.9928C51.7162 54.9346 51.3816 54.9739 51.08 55.1054C50.7842 55.2307 50.532 55.4387 50.3543 55.7039C50.1766 55.969 50.0813 56.2797 50.08 56.5978V56.7658C50.08 57.29 49.8693 57.7927 49.4942 58.1634C49.1191 58.5341 48.6104 58.7423 48.08 58.7423C47.5496 58.7423 47.0409 58.5341 46.6658 58.1634C46.2907 57.7927 46.08 57.29 46.08 56.7658V56.6768C46.0723 56.3497 45.9651 56.0325 45.7725 55.7663C45.5799 55.5002 45.3107 55.2975 45 55.1845C44.6984 55.053 44.3638 55.0137 44.0394 55.0718C43.715 55.13 43.4157 55.2828 43.18 55.5106L43.12 55.5699C42.9343 55.7537 42.7137 55.8995 42.4709 55.999C42.2281 56.0984 41.9678 56.1496 41.705 56.1496C41.4422 56.1496 41.1819 56.0984 40.9391 55.999C40.6963 55.8995 40.4757 55.7537 40.29 55.5699C40.104 55.3864 39.9565 55.1684 39.8559 54.9284C39.7552 54.6885 39.7034 54.4313 39.7034 54.1715C39.7034 53.9118 39.7552 53.6546 39.8559 53.4146C39.9565 53.1746 40.104 52.9567 40.29 52.7731L40.35 52.7138C40.5805 52.4809 40.7352 52.185 40.794 51.8644C40.8528 51.5438 40.8131 51.2132 40.68 50.9151C40.5532 50.6228 40.3428 50.3735 40.0745 50.1979C39.8062 50.0223 39.4918 49.9281 39.17 49.9268H39C38.4696 49.9268 37.9609 49.7186 37.5858 49.3479C37.2107 48.9772 37 48.4745 37 47.9502C37 47.426 37.2107 46.9233 37.5858 46.5526C37.9609 46.1819 38.4696 45.9737 39 45.9737H39.09C39.421 45.966 39.742 45.8601 40.0113 45.6698C40.2806 45.4794 40.4857 45.2134 40.6 44.9063C40.7331 44.6082 40.7728 44.2776 40.714 43.957C40.6552 43.6364 40.5005 43.3405 40.27 43.1076L40.21 43.0483C40.024 42.8648 39.8765 42.6468 39.7759 42.4068C39.6752 42.1669 39.6234 41.9096 39.6234 41.6499C39.6234 41.3901 39.6752 41.1329 39.7759 40.893C39.8765 40.653 40.024 40.435 40.21 40.2515C40.3957 40.0677 40.6163 39.9219 40.8591 39.8224C41.1019 39.723 41.3622 39.6718 41.625 39.6718C41.8878 39.6718 42.1481 39.723 42.3909 39.8224C42.6337 39.9219 42.8543 40.0677 43.04 40.2515L43.1 40.3108C43.3357 40.5386 43.635 40.6914 43.9594 40.7496C44.2838 40.8077 44.6184 40.7685 44.92 40.6369H45C45.2958 40.5116 45.548 40.3036 45.7257 40.0385C45.9034 39.7733 45.9987 39.4626 46 39.1446V38.9766C46 38.4524 46.2107 37.9496 46.5858 37.5789C46.9609 37.2082 47.4696 37 48 37C48.5304 37 49.0391 37.2082 49.4142 37.5789C49.7893 37.9496 50 38.4524 50 38.9766V39.0655C50.0013 39.3835 50.0966 39.6942 50.2743 39.9594C50.452 40.2245 50.7042 40.4326 51 40.5578C51.3016 40.6894 51.6362 40.7286 51.9606 40.6705C52.285 40.6124 52.5843 40.4595 52.82 40.2317L52.88 40.1724C53.0657 39.9886 53.2863 39.8428 53.5291 39.7434C53.7719 39.6439 54.0322 39.5927 54.295 39.5927C54.5578 39.5927 54.8181 39.6439 55.0609 39.7434C55.3037 39.8428 55.5243 39.9886 55.71 40.1724C55.896 40.356 56.0435 40.574 56.1441 40.8139C56.2448 41.0539 56.2966 41.3111 56.2966 41.5708C56.2966 41.8306 56.2448 42.0878 56.1441 42.3277C56.0435 42.5677 55.896 42.7857 55.71 42.9693L55.65 43.0286C55.4195 43.2615 55.2648 43.5573 55.206 43.8779C55.1472 44.1985 55.1869 44.5292 55.32 44.8272V44.9063C55.4468 45.1986 55.6572 45.4479 55.9255 45.6235C56.1938 45.7991 56.5082 45.8933 56.83 45.8946H57C57.5304 45.8946 58.0391 46.1028 58.4142 46.4735C58.7893 46.8442 59 47.347 59 47.8712C59 48.3954 58.7893 48.8981 58.4142 49.2688C58.0391 49.6395 57.5304 49.8478 57 49.8478H56.91C56.5882 49.849 56.2738 49.9432 56.0055 50.1188C55.7372 50.2944 55.5268 50.5437 55.4 50.836Z" stroke="#EA6AFE" stroke-linecap="round" stroke-linejoin="round"/>
<defs>
<radialGradient id="paint0_radial_305_1155" cx="0" cy="0" r="1" gradientUnits="userSpaceOnUse" gradientTransform="translate(47.5 47.5) rotate(90) scale(47.5)">
<stop stop-color="#A502BF"/>
<stop offset="1" stop-color="#25002B" stop-opacity="0"/>
</radialGradient>
<linearGradient id="paint1_linear_305_1155" x1="47.5" y1="9" x2="47.5" y2="86" gradientUnits="userSpaceOnUse">
<stop stop-color="#A502BF"/>
<stop offset="1" stop-color="#A502BF" stop-opacity="0"/>
</linearGradient>
<linearGradient id="paint2_linear_305_1155" x1="47.5" y1="23" x2="47.5" y2="72" gradientUnits="userSpaceOnUse">
<stop stop-color="#E05CF5"/>
<stop offset="1" stop-color="#A502BF" stop-opacity="0"/>
</linearGradient>
</defs>
</svg>
