<svg width="20" height="21" viewBox="0 0 20 21" fill="none" xmlns="http://www.w3.org/2000/svg">
<g filter="url(#filter0_d_1_38)">
<path d="M18 12.7454V6.03278C17.9997 5.73849 17.9174 5.44946 17.7614 5.19467C17.6054 4.93988 17.3811 4.72831 17.1111 4.58116L10.8889 1.22483C10.6186 1.07754 10.3121 1 10 1C9.68793 1 9.38137 1.07754 9.11111 1.22483L2.88889 4.58116C2.6189 4.72831 2.39465 4.93988 2.23863 5.19467C2.08262 5.44946 2.00032 5.73849 2 6.03278V12.7454C2.00032 13.0397 2.08262 13.3288 2.23863 13.5835C2.39465 13.8383 2.6189 14.0499 2.88889 14.1971L9.11111 17.5534C9.38137 17.7007 9.68793 17.7782 10 17.7782C10.3121 17.7782 10.6186 17.7007 10.8889 17.5534L17.1111 14.1971C17.3811 14.0499 17.6054 13.8383 17.7614 13.5835C17.9174 13.3288 17.9997 13.0397 18 12.7454Z" stroke="#EDEDED" stroke-linecap="round" stroke-linejoin="round"/>
<path d="M2.23999 5.1601L9.99999 9.39746L17.76 5.1601" stroke="#EDEDED" stroke-linecap="round" stroke-linejoin="round"/>
<path d="M10 17.8471V9.3891" stroke="#EDEDED" stroke-linecap="round" stroke-linejoin="round"/>
</g>
<defs>
<filter id="filter0_d_1_38" x="0.5" y="0.5" width="19" height="19.847" filterUnits="userSpaceOnUse" color-interpolation-filters="sRGB">
<feFlood flood-opacity="0" result="BackgroundImageFix"/>
<feColorMatrix in="SourceAlpha" type="matrix" values="0 0 0 0 0 0 0 0 0 0 0 0 0 0 0 0 0 0 127 0" result="hardAlpha"/>
<feOffset dy="1"/>
<feGaussianBlur stdDeviation="0.5"/>
<feComposite in2="hardAlpha" operator="out"/>
<feColorMatrix type="matrix" values="0 0 0 0 0 0 0 0 0 0 0 0 0 0 0 0 0 0 0.4 0"/>
<feBlend mode="normal" in2="BackgroundImageFix" result="effect1_dropShadow_1_38"/>
<feBlend mode="normal" in="SourceGraphic" in2="effect1_dropShadow_1_38" result="shape"/>
</filter>
</defs>
</svg>
