<svg width="157" height="51" viewBox="0 0 157 51" fill="none" xmlns="http://www.w3.org/2000/svg">
<path d="M62.1136 30V12.5455H68.0114C69.3807 12.5455 70.5 12.7926 71.3693 13.2869C72.2443 13.7756 72.892 14.4375 73.3125 15.2727C73.733 16.108 73.9432 17.0398 73.9432 18.0682C73.9432 19.0966 73.733 20.0312 73.3125 20.8722C72.8977 21.7131 72.2557 22.3835 71.3864 22.8835C70.517 23.3778 69.4034 23.625 68.0455 23.625H63.8182V21.75H67.9773C68.9148 21.75 69.6676 21.5881 70.2358 21.2642C70.804 20.9403 71.2159 20.5028 71.4716 19.9517C71.733 19.3949 71.8636 18.767 71.8636 18.0682C71.8636 17.3693 71.733 16.7443 71.4716 16.1932C71.2159 15.642 70.8011 15.2102 70.2273 14.8977C69.6534 14.5795 68.892 14.4205 67.9432 14.4205H64.2273V30H62.1136ZM77.0753 30V16.9091H79.0866V30H77.0753ZM78.098 14.7273C77.706 14.7273 77.3679 14.5938 77.0838 14.3267C76.8054 14.0597 76.6662 13.7386 76.6662 13.3636C76.6662 12.9886 76.8054 12.6676 77.0838 12.4006C77.3679 12.1335 77.706 12 78.098 12C78.4901 12 78.8253 12.1335 79.1037 12.4006C79.3878 12.6676 79.5298 12.9886 79.5298 13.3636C79.5298 13.7386 79.3878 14.0597 79.1037 14.3267C78.8253 14.5938 78.4901 14.7273 78.098 14.7273ZM84.782 22.125V30H82.7706V16.9091H84.7138V18.9545H84.8842C85.1911 18.2898 85.657 17.7557 86.282 17.3523C86.907 16.9432 87.7138 16.7386 88.7024 16.7386C89.5888 16.7386 90.3643 16.9205 91.0291 17.2841C91.6939 17.642 92.2109 18.1875 92.5803 18.9205C92.9496 19.6477 93.1342 20.5682 93.1342 21.6818V30H91.1229V21.8182C91.1229 20.7898 90.8558 19.9886 90.3217 19.4148C89.7876 18.8352 89.0547 18.5455 88.1229 18.5455C87.4808 18.5455 86.907 18.6847 86.4013 18.9631C85.9013 19.2415 85.5064 19.6477 85.2166 20.1818C84.9268 20.7159 84.782 21.3636 84.782 22.125ZM98.6847 25.2273L98.6506 22.7386H99.0597L104.787 16.9091H107.276L101.173 23.0795H101.003L98.6847 25.2273ZM96.8097 30V12.5455H98.821V30H96.8097ZM105.128 30L100.014 23.5227L101.446 22.125L107.685 30H105.128ZM119.683 16.9091C119.58 16.0455 119.165 15.375 118.438 14.8977C117.711 14.4205 116.819 14.1818 115.762 14.1818C114.989 14.1818 114.313 14.3068 113.734 14.5568C113.16 14.8068 112.711 15.1506 112.387 15.5881C112.069 16.0256 111.91 16.5227 111.91 17.0795C111.91 17.5455 112.021 17.946 112.242 18.2812C112.469 18.6108 112.759 18.8864 113.112 19.108C113.464 19.3239 113.833 19.5028 114.219 19.6449C114.606 19.7812 114.961 19.892 115.285 19.9773L117.058 20.4545C117.512 20.5739 118.018 20.7386 118.575 20.9489C119.137 21.1591 119.674 21.446 120.185 21.8097C120.702 22.1676 121.129 22.6278 121.464 23.1903C121.799 23.7528 121.967 24.4432 121.967 25.2614C121.967 26.2045 121.719 27.0568 121.225 27.8182C120.737 28.5795 120.021 29.1847 119.077 29.6335C118.14 30.0824 117.001 30.3068 115.66 30.3068C114.41 30.3068 113.327 30.1051 112.413 29.7017C111.504 29.2983 110.788 28.7358 110.265 28.0142C109.748 27.2926 109.455 26.4545 109.387 25.5H111.569C111.626 26.1591 111.847 26.7045 112.234 27.1364C112.626 27.5625 113.12 27.8807 113.717 28.0909C114.319 28.2955 114.967 28.3977 115.66 28.3977C116.467 28.3977 117.191 28.267 117.833 28.0057C118.475 27.7386 118.984 27.3693 119.359 26.8977C119.734 26.4205 119.921 25.8636 119.921 25.2273C119.921 24.6477 119.759 24.1761 119.435 23.8125C119.112 23.4489 118.685 23.1534 118.157 22.9261C117.629 22.6989 117.058 22.5 116.444 22.3295L114.296 21.7159C112.933 21.3239 111.853 20.7642 111.058 20.0369C110.262 19.3097 109.864 18.358 109.864 17.1818C109.864 16.2045 110.129 15.3523 110.657 14.625C111.191 13.892 111.907 13.3239 112.805 12.9205C113.708 12.5114 114.717 12.3068 115.83 12.3068C116.955 12.3068 117.955 12.5085 118.83 12.9119C119.705 13.3097 120.398 13.8551 120.91 14.5483C121.427 15.2415 121.7 16.0284 121.728 16.9091H119.683ZM129.021 30.3068C128.192 30.3068 127.439 30.1506 126.763 29.8381C126.087 29.5199 125.55 29.0625 125.152 28.4659C124.754 27.8636 124.555 27.1364 124.555 26.2841C124.555 25.5341 124.703 24.9261 124.999 24.4602C125.294 23.9886 125.689 23.6193 126.183 23.3523C126.678 23.0852 127.223 22.8864 127.82 22.7557C128.422 22.6193 129.027 22.5114 129.635 22.4318C130.43 22.3295 131.075 22.2528 131.57 22.2017C132.07 22.1449 132.433 22.0511 132.661 21.9205C132.893 21.7898 133.01 21.5625 133.01 21.2386V21.1705C133.01 20.3295 132.78 19.6761 132.32 19.2102C131.865 18.7443 131.175 18.5114 130.249 18.5114C129.288 18.5114 128.536 18.7216 127.99 19.142C127.445 19.5625 127.061 20.0114 126.839 20.4886L124.93 19.8068C125.271 19.0114 125.726 18.392 126.294 17.9489C126.868 17.5 127.493 17.1875 128.169 17.0114C128.851 16.8295 129.521 16.7386 130.18 16.7386C130.601 16.7386 131.084 16.7898 131.629 16.892C132.18 16.9886 132.712 17.1903 133.223 17.4972C133.74 17.804 134.169 18.267 134.51 18.8864C134.851 19.5057 135.021 20.3352 135.021 21.375V30H133.01V28.2273H132.908C132.771 28.5114 132.544 28.8153 132.226 29.1392C131.908 29.4631 131.484 29.7386 130.956 29.9659C130.428 30.1932 129.783 30.3068 129.021 30.3068ZM129.328 28.5C130.124 28.5 130.794 28.3438 131.339 28.0312C131.891 27.7188 132.305 27.3153 132.584 26.821C132.868 26.3267 133.01 25.8068 133.01 25.2614V23.4205C132.925 23.5227 132.737 23.6165 132.447 23.7017C132.163 23.7812 131.834 23.8523 131.459 23.9148C131.089 23.9716 130.729 24.0227 130.376 24.0682C130.03 24.108 129.749 24.142 129.533 24.1705C129.01 24.2386 128.521 24.3494 128.067 24.5028C127.618 24.6506 127.254 24.875 126.976 25.1761C126.703 25.4716 126.567 25.875 126.567 26.3864C126.567 27.0852 126.825 27.6136 127.342 27.9716C127.865 28.3239 128.527 28.5 129.328 28.5ZM140.704 12.5455V30H138.692V12.5455H140.704ZM149.876 30.2727C148.615 30.2727 147.527 29.9943 146.612 29.4375C145.703 28.875 145.001 28.0909 144.507 27.0852C144.018 26.0739 143.774 24.8977 143.774 23.5568C143.774 22.2159 144.018 21.0341 144.507 20.0114C145.001 18.983 145.689 18.1818 146.57 17.608C147.456 17.0284 148.49 16.7386 149.672 16.7386C150.354 16.7386 151.027 16.8523 151.692 17.0795C152.357 17.3068 152.962 17.6761 153.507 18.1875C154.053 18.6932 154.487 19.3636 154.811 20.1989C155.135 21.0341 155.297 22.0625 155.297 23.2841V24.1364H145.206V22.3977H153.251C153.251 21.6591 153.104 21 152.808 20.4205C152.518 19.8409 152.104 19.3835 151.564 19.0483C151.03 18.7131 150.399 18.5455 149.672 18.5455C148.871 18.5455 148.178 18.7443 147.592 19.142C147.013 19.5341 146.567 20.0455 146.254 20.6761C145.942 21.3068 145.786 21.983 145.786 22.7045V23.8636C145.786 24.8523 145.956 25.6903 146.297 26.3778C146.643 27.0597 147.124 27.5795 147.737 27.9375C148.351 28.2898 149.064 28.4659 149.876 28.4659C150.405 28.4659 150.882 28.392 151.308 28.2443C151.74 28.0909 152.112 27.8636 152.425 27.5625C152.737 27.2557 152.979 26.875 153.149 26.4205L155.092 26.9659C154.888 27.625 154.544 28.2045 154.061 28.7045C153.578 29.1989 152.982 29.5852 152.271 29.8636C151.561 30.1364 150.763 30.2727 149.876 30.2727Z" fill="#EDEDED"/>
<g filter="url(#filter0_d_1_27)">
<rect x="4" width="43" height="43" rx="11" fill="#A502BF"/>
<rect x="4" width="43" height="43" rx="11" fill="url(#paint0_linear_1_27)" fill-opacity="0.4"/>
<rect x="4.5" y="0.5" width="42" height="42" rx="10.5" stroke="white" stroke-opacity="0.2"/>
</g>
<g filter="url(#filter1_d_1_27)">
<path d="M26 11L36 17.5V24.5L26 31L16 24.5V17.5L26 11Z" stroke="#EDEDED" stroke-linecap="round" stroke-linejoin="round"/>
<path d="M26 31V24.5" stroke="#EDEDED" stroke-linecap="round" stroke-linejoin="round"/>
<path d="M36 17.5L26 24.5L16 17.5" stroke="#EDEDED" stroke-linecap="round" stroke-linejoin="round"/>
<path d="M16 24.5L26 17.5L36 24.5" stroke="#EDEDED" stroke-linecap="round" stroke-linejoin="round"/>
<path d="M26 11V17.5" stroke="#EDEDED" stroke-linecap="round" stroke-linejoin="round"/>
</g>
<defs>
<filter id="filter0_d_1_27" x="0" y="0" width="51" height="51" filterUnits="userSpaceOnUse" color-interpolation-filters="sRGB">
<feFlood flood-opacity="0" result="BackgroundImageFix"/>
<feColorMatrix in="SourceAlpha" type="matrix" values="0 0 0 0 0 0 0 0 0 0 0 0 0 0 0 0 0 0 127 0" result="hardAlpha"/>
<feOffset dy="4"/>
<feGaussianBlur stdDeviation="2"/>
<feComposite in2="hardAlpha" operator="out"/>
<feColorMatrix type="matrix" values="0 0 0 0 0 0 0 0 0 0 0 0 0 0 0 0 0 0 0.25 0"/>
<feBlend mode="normal" in2="BackgroundImageFix" result="effect1_dropShadow_1_27"/>
<feBlend mode="normal" in="SourceGraphic" in2="effect1_dropShadow_1_27" result="shape"/>
</filter>
<filter id="filter1_d_1_27" x="14.4999" y="10.5" width="23.0001" height="23" filterUnits="userSpaceOnUse" color-interpolation-filters="sRGB">
<feFlood flood-opacity="0" result="BackgroundImageFix"/>
<feColorMatrix in="SourceAlpha" type="matrix" values="0 0 0 0 0 0 0 0 0 0 0 0 0 0 0 0 0 0 127 0" result="hardAlpha"/>
<feOffset dy="1"/>
<feGaussianBlur stdDeviation="0.5"/>
<feComposite in2="hardAlpha" operator="out"/>
<feColorMatrix type="matrix" values="0 0 0 0 0 0 0 0 0 0 0 0 0 0 0 0 0 0 0.25 0"/>
<feBlend mode="normal" in2="BackgroundImageFix" result="effect1_dropShadow_1_27"/>
<feBlend mode="normal" in="SourceGraphic" in2="effect1_dropShadow_1_27" result="shape"/>
</filter>
<linearGradient id="paint0_linear_1_27" x1="25.5" y1="0" x2="25.5" y2="43" gradientUnits="userSpaceOnUse">
<stop/>
<stop offset="1" stop-opacity="0"/>
</linearGradient>
</defs>
</svg>
