<svg width="107" height="19" viewBox="0 0 107 19" fill="none" xmlns="http://www.w3.org/2000/svg">
<path d="M0.646446 9.64644C0.451183 9.8417 0.451183 10.1583 0.646446 10.3535L3.82843 13.5355C4.02369 13.7308 4.34027 13.7308 4.53553 13.5355C4.7308 13.3403 4.7308 13.0237 4.53553 12.8284L1.70711 10L4.53553 7.17157C4.7308 6.97631 4.7308 6.65972 4.53553 6.46446C4.34027 6.2692 4.02369 6.2692 3.82843 6.46446L0.646446 9.64644ZM49 9.5L1 9.5L1 10.5L49 10.5L49 9.5Z" fill="#353535"/>
<path d="M70.4091 15V3.36364H74.4773C75.2879 3.36364 75.9564 3.50379 76.483 3.78409C77.0095 4.06061 77.4015 4.43371 77.6591 4.90341C77.9167 5.36932 78.0455 5.88636 78.0455 6.45455C78.0455 6.95455 77.9564 7.36742 77.7784 7.69318C77.6042 8.01894 77.3731 8.27652 77.0852 8.46591C76.8011 8.6553 76.4924 8.79545 76.1591 8.88636V9C76.5152 9.02273 76.8731 9.14773 77.233 9.375C77.5928 9.60227 77.8939 9.92803 78.1364 10.3523C78.3788 10.7765 78.5 11.2955 78.5 11.9091C78.5 12.4924 78.3674 13.017 78.1023 13.483C77.8371 13.9489 77.4186 14.3182 76.8466 14.5909C76.2746 14.8636 75.5303 15 74.6136 15H70.4091ZM71.8182 13.75H74.6136C75.5341 13.75 76.1875 13.572 76.5739 13.2159C76.964 12.8561 77.1591 12.4205 77.1591 11.9091C77.1591 11.5152 77.0587 11.1515 76.858 10.8182C76.6572 10.4811 76.3712 10.2121 76 10.0114C75.6288 9.80682 75.1894 9.70455 74.6818 9.70455H71.8182V13.75ZM71.8182 8.47727H74.4318C74.8561 8.47727 75.2386 8.39394 75.5795 8.22727C75.9242 8.06061 76.197 7.82576 76.3977 7.52273C76.6023 7.2197 76.7045 6.86364 76.7045 6.45455C76.7045 5.94318 76.5265 5.50947 76.1705 5.15341C75.8144 4.79356 75.25 4.61364 74.4773 4.61364H71.8182V8.47727ZM83.2017 15.2045C82.6487 15.2045 82.1468 15.1004 81.696 14.892C81.2453 14.6799 80.8873 14.375 80.6222 13.9773C80.357 13.5758 80.2244 13.0909 80.2244 12.5227C80.2244 12.0227 80.3229 11.6174 80.5199 11.3068C80.7169 10.9924 80.9801 10.7462 81.3097 10.5682C81.6392 10.3902 82.0028 10.2576 82.4006 10.1705C82.8021 10.0795 83.2055 10.0076 83.6108 9.95455C84.1411 9.88636 84.571 9.83523 84.9006 9.80114C85.2339 9.76326 85.4763 9.70076 85.6278 9.61364C85.7831 9.52652 85.8608 9.375 85.8608 9.15909V9.11364C85.8608 8.55303 85.7074 8.11742 85.4006 7.80682C85.0975 7.49621 84.6373 7.34091 84.0199 7.34091C83.3797 7.34091 82.8778 7.48106 82.5142 7.76136C82.1506 8.04167 81.8949 8.34091 81.7472 8.65909L80.4744 8.20455C80.7017 7.67424 81.0047 7.26136 81.3835 6.96591C81.7661 6.66667 82.1828 6.45833 82.6335 6.34091C83.0881 6.2197 83.535 6.15909 83.9744 6.15909C84.2547 6.15909 84.5767 6.19318 84.9403 6.26136C85.3078 6.32576 85.6619 6.46023 86.0028 6.66477C86.3475 6.86932 86.6335 7.17803 86.8608 7.59091C87.0881 8.00379 87.2017 8.55682 87.2017 9.25V15H85.8608V13.8182H85.7926C85.7017 14.0076 85.5502 14.2102 85.3381 14.4261C85.1259 14.642 84.8438 14.8258 84.4915 14.9773C84.1392 15.1288 83.7093 15.2045 83.2017 15.2045ZM83.4062 14C83.9366 14 84.3835 13.8958 84.7472 13.6875C85.1146 13.4792 85.3911 13.2102 85.5767 12.8807C85.7661 12.5511 85.8608 12.2045 85.8608 11.8409V10.6136C85.804 10.6818 85.679 10.7443 85.4858 10.8011C85.2964 10.8542 85.0767 10.9015 84.8267 10.9432C84.5805 10.9811 84.34 11.0152 84.1051 11.0455C83.8741 11.072 83.6866 11.0947 83.5426 11.1136C83.1941 11.1591 82.8684 11.233 82.5653 11.3352C82.2661 11.4337 82.0237 11.5833 81.8381 11.7841C81.6563 11.9811 81.5653 12.25 81.5653 12.5909C81.5653 13.0568 81.7377 13.4091 82.0824 13.6477C82.4309 13.8826 82.8722 14 83.4062 14ZM93.1946 15.1818C92.3764 15.1818 91.6719 14.9886 91.081 14.6023C90.4901 14.2159 90.0355 13.6837 89.7173 13.0057C89.3991 12.3277 89.2401 11.553 89.2401 10.6818C89.2401 9.79545 89.4029 9.01326 89.7287 8.33523C90.0582 7.65341 90.5166 7.12121 91.1037 6.73864C91.6946 6.35227 92.384 6.15909 93.1719 6.15909C93.7855 6.15909 94.3385 6.27273 94.831 6.5C95.3234 6.72727 95.7268 7.04545 96.0412 7.45455C96.3556 7.86364 96.5507 8.34091 96.6264 8.88636H95.2855C95.1832 8.48864 94.956 8.13636 94.6037 7.82955C94.2552 7.51894 93.7855 7.36364 93.1946 7.36364C92.6719 7.36364 92.2135 7.5 91.8196 7.77273C91.4295 8.04167 91.1245 8.42235 90.9048 8.91477C90.6889 9.40341 90.581 9.97727 90.581 10.6364C90.581 11.3106 90.687 11.8977 90.8991 12.3977C91.1151 12.8977 91.4181 13.286 91.8082 13.5625C92.2022 13.839 92.6643 13.9773 93.1946 13.9773C93.5431 13.9773 93.8594 13.9167 94.1435 13.7955C94.4276 13.6742 94.6681 13.5 94.8651 13.2727C95.062 13.0455 95.2022 12.7727 95.2855 12.4545H96.6264C96.5507 12.9697 96.3632 13.4337 96.0639 13.8466C95.7685 14.2557 95.3764 14.5814 94.8878 14.8239C94.4029 15.0625 93.8385 15.1818 93.1946 15.1818ZM99.8366 11.8182L99.8139 10.1591H100.087L103.905 6.27273H105.564L101.496 10.3864H101.382L99.8366 11.8182ZM98.5866 15V3.36364H99.9276V15H98.5866ZM104.132 15L100.723 10.6818L101.678 9.75L105.837 15H104.132Z" fill="#7C7C7C"/>
</svg>
