<svg width="958" height="133" viewBox="0 0 958 133" fill="none" xmlns="http://www.w3.org/2000/svg">
<rect x="319.356" y="68.6055" width="179" height="63" rx="31.5" transform="rotate(-3.88759 319.356 68.6055)" fill="url(#paint0_linear_205_1347)" stroke="url(#paint1_linear_205_1347)" stroke-width="2"/>
<path d="M2.60085 16.3669V13.5033H27.9134V16.3669H16.8509V48.4124H13.6634V16.3669H2.60085ZM37.4929 32.0487V48.4124H34.4588V13.5033H37.4929V26.3385H37.7656C38.3793 24.9862 39.3281 23.9067 40.6122 23.0999C41.9077 22.293 43.544 21.8896 45.5213 21.8896C47.294 21.8896 48.8509 22.2533 50.1918 22.9805C51.5327 23.7078 52.5781 24.7817 53.3281 26.2021C54.0781 27.6226 54.4531 29.3726 54.4531 31.4521V48.4124H51.402V31.6396C51.402 29.4805 50.7997 27.7817 49.5952 26.543C48.402 25.293 46.7884 24.668 44.7543 24.668C43.3565 24.668 42.1122 24.9635 41.0213 25.5544C39.9304 26.1453 39.0668 26.9976 38.4304 28.1112C37.8054 29.2135 37.4929 30.526 37.4929 32.0487ZM73.0284 48.9578C70.5852 48.9578 68.4716 48.3896 66.6875 47.2533C64.9034 46.1055 63.5227 44.5203 62.5455 42.4976C61.5795 40.4635 61.0966 38.1226 61.0966 35.4749C61.0966 32.8385 61.5795 30.4976 62.5455 28.4521C63.5227 26.3953 64.8693 24.7874 66.5852 23.6283C68.3125 22.4578 70.3068 21.8726 72.5682 21.8726C73.9886 21.8726 75.358 22.1339 76.6761 22.6567C77.9943 23.168 79.1761 23.9578 80.2216 25.026C81.2784 26.0828 82.1136 27.418 82.7273 29.0317C83.3409 30.6339 83.6477 32.5317 83.6477 34.7249V36.2249H63.1932V33.5487H80.5455C80.5455 31.8669 80.2045 30.3555 79.5227 29.0146C78.8523 27.6624 77.9148 26.5942 76.7102 25.8101C75.517 25.026 74.1364 24.6339 72.5682 24.6339C70.9091 24.6339 69.4489 25.0771 68.1875 25.9635C66.9261 26.8499 65.9375 28.0203 65.2216 29.4749C64.517 30.9294 64.1591 32.5203 64.1477 34.2476V35.8499C64.1477 37.9294 64.5057 39.7476 65.2216 41.3044C65.9489 42.8499 66.9773 44.0487 68.3068 44.901C69.6364 45.7533 71.2102 46.1794 73.0284 46.1794C74.267 46.1794 75.3523 45.9862 76.2841 45.5999C77.2273 45.2135 78.017 44.6964 78.6534 44.0487C79.3011 43.3896 79.7898 42.668 80.1193 41.8839L83 42.8214C82.6023 43.9237 81.9489 44.9408 81.0398 45.8726C80.142 46.8044 79.017 47.5544 77.6648 48.1226C76.3239 48.6794 74.7784 48.9578 73.0284 48.9578ZM103.834 48.4124V22.2305H106.783V26.2533H107.055C107.578 24.901 108.447 23.8385 109.663 23.0658C110.891 22.2817 112.362 21.8896 114.078 21.8896C115.885 21.8896 117.368 22.3158 118.527 23.168C119.697 24.0089 120.572 25.168 121.152 26.6453H121.374C121.964 25.1908 122.925 24.0374 124.254 23.1851C125.595 22.3214 127.22 21.8896 129.129 21.8896C131.561 21.8896 133.482 22.6567 134.891 24.1908C136.3 25.7135 137.004 27.9408 137.004 30.8726V48.4124H133.97V30.8726C133.97 28.8044 133.442 27.2533 132.385 26.2192C131.328 25.1851 129.936 24.668 128.209 24.668C126.209 24.668 124.669 25.2817 123.589 26.5089C122.51 27.7362 121.97 29.293 121.97 31.1794V48.4124H118.868V30.5999C118.868 28.8271 118.374 27.3953 117.385 26.3044C116.396 25.2135 115.004 24.668 113.209 24.668C112.004 24.668 110.919 24.9635 109.953 25.5544C108.999 26.1453 108.243 26.9692 107.686 28.026C107.141 29.0714 106.868 30.276 106.868 31.6396V48.4124H103.834ZM155.213 48.9578C152.952 48.9578 150.952 48.3839 149.213 47.2362C147.486 46.0885 146.134 44.5033 145.156 42.4805C144.179 40.4464 143.69 38.0999 143.69 35.4408C143.69 32.7589 144.179 30.401 145.156 28.3669C146.134 26.3214 147.486 24.7305 149.213 23.5942C150.952 22.4464 152.952 21.8726 155.213 21.8726C157.474 21.8726 159.469 22.4464 161.196 23.5942C162.923 24.7419 164.276 26.3328 165.253 28.3669C166.241 30.401 166.736 32.7589 166.736 35.4408C166.736 38.0999 166.247 40.4464 165.27 42.4805C164.293 44.5033 162.935 46.0885 161.196 47.2362C159.469 48.3839 157.474 48.9578 155.213 48.9578ZM155.213 46.1794C157.031 46.1794 158.571 45.6908 159.832 44.7135C161.094 43.7362 162.048 42.4351 162.696 40.8101C163.355 39.1851 163.685 37.3953 163.685 35.4408C163.685 33.4862 163.355 31.6908 162.696 30.0544C162.048 28.418 161.094 27.1055 159.832 26.1169C158.571 25.1283 157.031 24.6339 155.213 24.6339C153.406 24.6339 151.866 25.1283 150.594 26.1169C149.332 27.1055 148.372 28.418 147.713 30.0544C147.065 31.6908 146.741 33.4862 146.741 35.4408C146.741 37.3953 147.065 39.1851 147.713 40.8101C148.372 42.4351 149.332 43.7362 150.594 44.7135C151.855 45.6908 153.395 46.1794 155.213 46.1794ZM190.987 27.9749L188.209 28.7589C187.936 27.9749 187.55 27.2646 187.05 26.6283C186.55 25.9919 185.896 25.4862 185.089 25.1112C184.294 24.7362 183.305 24.5487 182.124 24.5487C180.351 24.5487 178.896 24.9692 177.76 25.8101C176.624 26.651 176.055 27.7362 176.055 29.0658C176.055 30.1908 176.442 31.1055 177.214 31.8101C177.999 32.5033 179.203 33.0544 180.828 33.4635L184.783 34.4351C186.976 34.9692 188.618 35.8158 189.709 36.9749C190.811 38.1339 191.362 39.5885 191.362 41.3385C191.362 42.8158 190.953 44.1283 190.135 45.276C189.317 46.4237 188.175 47.3271 186.709 47.9862C185.254 48.6339 183.567 48.9578 181.646 48.9578C179.089 48.9578 176.982 48.3839 175.322 47.2362C173.663 46.0771 172.601 44.4067 172.135 42.2249L175.05 41.5089C175.425 43.0658 176.158 44.2419 177.249 45.0374C178.351 45.8328 179.8 46.2305 181.595 46.2305C183.607 46.2305 185.214 45.7817 186.419 44.8839C187.624 43.9749 188.226 42.8385 188.226 41.4749C188.226 40.418 187.874 39.5317 187.169 38.8158C186.464 38.0885 185.396 37.5544 183.964 37.2135L179.686 36.1908C177.413 35.6453 175.732 34.7817 174.641 33.5999C173.55 32.418 173.004 30.9521 173.004 29.2021C173.004 27.7589 173.396 26.4919 174.18 25.401C174.964 24.2987 176.044 23.4351 177.419 22.8101C178.794 22.1851 180.362 21.8726 182.124 21.8726C184.521 21.8726 186.436 22.418 187.868 23.5089C189.311 24.5885 190.351 26.0771 190.987 27.9749ZM208.318 22.2305V24.8726H195.824V22.2305H208.318ZM199.727 15.9578H202.778V41.5771C202.778 42.668 202.966 43.526 203.341 44.151C203.716 44.7646 204.205 45.2021 204.807 45.4635C205.409 45.7135 206.051 45.8385 206.733 45.8385C207.131 45.8385 207.472 45.8158 207.756 45.7703C208.04 45.7135 208.29 45.6567 208.506 45.5999L209.153 48.3442C208.858 48.4578 208.494 48.5601 208.062 48.651C207.631 48.7533 207.097 48.8044 206.46 48.8044C205.347 48.8044 204.273 48.5601 203.239 48.0714C202.216 47.5828 201.375 46.8555 200.716 45.8896C200.057 44.9237 199.727 43.7249 199.727 42.293V15.9578ZM520.974 49.0089C519.395 49.0089 517.952 48.7021 516.645 48.0885C515.338 47.4635 514.298 46.5658 513.526 45.3953C512.753 44.2135 512.366 42.7817 512.366 41.0999C512.366 39.8044 512.611 38.7135 513.099 37.8271C513.588 36.9408 514.281 36.2135 515.179 35.6453C516.077 35.0771 517.139 34.6283 518.366 34.2987C519.594 33.9692 520.946 33.7135 522.423 33.5317C523.889 33.3499 525.128 33.1908 526.139 33.0544C527.162 32.918 527.94 32.7021 528.474 32.4067C529.009 32.1112 529.276 31.6339 529.276 30.9749V30.3612C529.276 28.5771 528.741 27.1737 527.673 26.151C526.616 25.1169 525.094 24.5999 523.105 24.5999C521.219 24.5999 519.679 25.0146 518.486 25.8442C517.304 26.6737 516.474 27.651 515.997 28.776L513.116 27.7362C513.707 26.3044 514.526 25.1624 515.571 24.3101C516.616 23.4464 517.787 22.8271 519.082 22.4521C520.378 22.0658 521.69 21.8726 523.02 21.8726C524.02 21.8726 525.06 22.0033 526.139 22.2646C527.23 22.526 528.241 22.9805 529.173 23.6283C530.105 24.2646 530.861 25.1567 531.44 26.3044C532.02 27.4408 532.31 28.8839 532.31 30.6339V48.4124H529.276V44.2703H529.088C528.724 45.043 528.185 45.793 527.469 46.5203C526.753 47.2476 525.855 47.8442 524.776 48.3101C523.696 48.776 522.429 49.0089 520.974 49.0089ZM521.384 46.2305C522.997 46.2305 524.395 45.8726 525.577 45.1567C526.759 44.4408 527.668 43.4919 528.304 42.3101C528.952 41.1169 529.276 39.8044 529.276 38.3726V34.5885C529.048 34.8044 528.668 34.9976 528.134 35.168C527.611 35.3385 527.003 35.4919 526.31 35.6283C525.628 35.7533 524.946 35.8612 524.264 35.9521C523.582 36.043 522.969 36.1226 522.423 36.1908C520.946 36.3726 519.685 36.6567 518.639 37.043C517.594 37.4294 516.793 37.9635 516.236 38.6453C515.679 39.3158 515.401 40.1794 515.401 41.2362C515.401 42.8271 515.969 44.0601 517.105 44.9351C518.241 45.7987 519.668 46.2305 521.384 46.2305ZM543.415 32.0487V48.4124H540.381V22.2305H543.33V26.3385H543.602C544.216 24.9976 545.17 23.9237 546.466 23.1169C547.773 22.2987 549.386 21.8896 551.307 21.8896C553.068 21.8896 554.614 22.2589 555.943 22.9976C557.284 23.7249 558.324 24.7987 559.062 26.2192C559.812 27.6396 560.188 29.3839 560.188 31.4521V48.4124H557.153V31.6396C557.153 29.4919 556.551 27.793 555.347 26.543C554.153 25.293 552.551 24.668 550.54 24.668C549.165 24.668 547.943 24.9635 546.875 25.5544C545.807 26.1453 544.96 26.9976 544.335 28.1112C543.722 29.2135 543.415 30.526 543.415 32.0487ZM577.604 48.9578C575.456 48.9578 573.575 48.3896 571.962 47.2533C570.348 46.1169 569.087 44.5317 568.178 42.4976C567.28 40.4635 566.831 38.0942 566.831 35.3896C566.831 32.6964 567.28 30.3385 568.178 28.3158C569.087 26.2817 570.354 24.7021 571.979 23.5771C573.604 22.4408 575.496 21.8726 577.655 21.8726C579.246 21.8726 580.57 22.1567 581.626 22.7249C582.683 23.2817 583.53 23.9749 584.166 24.8044C584.803 25.6339 585.297 26.4408 585.649 27.2249H585.922V13.5033H588.973V48.4124H586.007V43.5544H585.649C585.297 44.3499 584.797 45.168 584.149 46.0089C583.501 46.8385 582.643 47.5374 581.575 48.1055C580.518 48.6737 579.195 48.9578 577.604 48.9578ZM577.962 46.1794C579.655 46.1794 581.098 45.7192 582.291 44.7987C583.484 43.8669 584.393 42.5885 585.018 40.9635C585.655 39.3271 585.973 37.4521 585.973 35.3385C585.973 33.2476 585.661 31.401 585.036 29.7987C584.411 28.1851 583.501 26.9237 582.308 26.0146C581.115 25.0942 579.666 24.6339 577.962 24.6339C576.212 24.6339 574.734 25.1112 573.53 26.0658C572.337 27.0089 571.428 28.2874 570.803 29.901C570.189 31.5146 569.882 33.3271 569.882 35.3385C569.882 37.3726 570.195 39.2078 570.82 40.8442C571.445 42.4805 572.354 43.7817 573.547 44.7476C574.751 45.7021 576.223 46.1794 577.962 46.1794ZM775.74 58.2305V22.2305H778.689V27.2249H779.047C779.411 26.4408 779.911 25.6396 780.547 24.8214C781.183 23.9919 782.024 23.293 783.07 22.7249C784.126 22.1567 785.456 21.8726 787.058 21.8726C789.217 21.8726 791.104 22.4408 792.717 23.5771C794.342 24.7021 795.604 26.2817 796.501 28.3158C797.411 30.3385 797.865 32.6964 797.865 35.3896C797.865 38.0942 797.411 40.4635 796.501 42.4976C795.604 44.5317 794.342 46.1169 792.717 47.2533C791.104 48.3896 789.229 48.9578 787.092 48.9578C785.513 48.9578 784.189 48.6737 783.121 48.1055C782.064 47.5374 781.206 46.8385 780.547 46.0089C779.899 45.168 779.399 44.3499 779.047 43.5544H778.774V58.2305H775.74ZM778.74 35.3385C778.74 37.4521 779.053 39.3271 779.678 40.9635C780.314 42.5885 781.223 43.8669 782.405 44.7987C783.598 45.7192 785.041 46.1794 786.734 46.1794C788.473 46.1794 789.939 45.7021 791.132 44.7476C792.337 43.7817 793.251 42.4805 793.876 40.8442C794.513 39.2078 794.831 37.3726 794.831 35.3385C794.831 33.3271 794.518 31.5146 793.893 29.901C793.28 28.2874 792.371 27.0089 791.166 26.0658C789.962 25.1112 788.484 24.6339 786.734 24.6339C785.03 24.6339 783.581 25.0942 782.388 26.0146C781.195 26.9237 780.286 28.1851 779.661 29.7987C779.047 31.401 778.74 33.2476 778.74 35.3385ZM807.555 13.5033V48.4124H804.521V13.5033H807.555ZM822.896 49.0089C821.317 49.0089 819.874 48.7021 818.567 48.0885C817.26 47.4635 816.22 46.5658 815.447 45.3953C814.675 44.2135 814.288 42.7817 814.288 41.0999C814.288 39.8044 814.533 38.7135 815.021 37.8271C815.51 36.9408 816.203 36.2135 817.101 35.6453C817.999 35.0771 819.061 34.6283 820.288 34.2987C821.516 33.9692 822.868 33.7135 824.345 33.5317C825.811 33.3499 827.05 33.1908 828.061 33.0544C829.084 32.918 829.862 32.7021 830.396 32.4067C830.93 32.1112 831.197 31.6339 831.197 30.9749V30.3612C831.197 28.5771 830.663 27.1737 829.595 26.151C828.538 25.1169 827.016 24.5999 825.027 24.5999C823.141 24.5999 821.601 25.0146 820.408 25.8442C819.226 26.6737 818.396 27.651 817.919 28.776L815.038 27.7362C815.629 26.3044 816.447 25.1624 817.493 24.3101C818.538 23.4464 819.709 22.8271 821.004 22.4521C822.3 22.0658 823.612 21.8726 824.942 21.8726C825.942 21.8726 826.982 22.0033 828.061 22.2646C829.152 22.526 830.163 22.9805 831.095 23.6283C832.027 24.2646 832.783 25.1567 833.362 26.3044C833.942 27.4408 834.232 28.8839 834.232 30.6339V48.4124H831.197V44.2703H831.01C830.646 45.043 830.107 45.793 829.391 46.5203C828.675 47.2476 827.777 47.8442 826.697 48.3101C825.618 48.776 824.351 49.0089 822.896 49.0089ZM823.305 46.2305C824.919 46.2305 826.317 45.8726 827.499 45.1567C828.68 44.4408 829.589 43.4919 830.226 42.3101C830.874 41.1169 831.197 39.8044 831.197 38.3726V34.5885C830.97 34.8044 830.589 34.9976 830.055 35.168C829.533 35.3385 828.925 35.4919 828.232 35.6283C827.55 35.7533 826.868 35.8612 826.186 35.9521C825.504 36.043 824.891 36.1226 824.345 36.1908C822.868 36.3726 821.607 36.6567 820.561 37.043C819.516 37.4294 818.714 37.9635 818.158 38.6453C817.601 39.3158 817.322 40.1794 817.322 41.2362C817.322 42.8271 817.891 44.0601 819.027 44.9351C820.163 45.7987 821.589 46.2305 823.305 46.2305ZM852.615 22.2305V24.8726H840.121V22.2305H852.615ZM844.024 15.9578H847.075V41.5771C847.075 42.668 847.263 43.526 847.638 44.151C848.013 44.7646 848.501 45.2021 849.104 45.4635C849.706 45.7135 850.348 45.8385 851.03 45.8385C851.428 45.8385 851.768 45.8158 852.053 45.7703C852.337 45.7135 852.587 45.6567 852.803 45.5999L853.45 48.3442C853.155 48.4578 852.791 48.5601 852.359 48.651C851.928 48.7533 851.393 48.8044 850.757 48.8044C849.643 48.8044 848.57 48.5601 847.536 48.0714C846.513 47.5828 845.672 46.8555 845.013 45.8896C844.354 44.9237 844.024 43.7249 844.024 42.293V15.9578ZM870.278 22.2305V24.8726H857.409V22.2305H870.278ZM861.432 48.4124V18.3953C861.432 16.9862 861.756 15.7987 862.403 14.8328C863.063 13.8669 863.92 13.1339 864.977 12.6339C866.034 12.1339 867.153 11.8839 868.335 11.8839C869.131 11.8839 869.79 11.9521 870.312 12.0885C870.847 12.2135 871.267 12.3385 871.574 12.4635L870.688 15.1226C870.46 15.0544 870.182 14.9749 869.852 14.8839C869.523 14.793 869.108 14.7476 868.608 14.7476C867.29 14.7476 866.273 15.1169 865.557 15.8555C864.841 16.5942 864.483 17.651 864.483 19.026L864.466 48.4124H861.432ZM885.432 48.9578C883.17 48.9578 881.17 48.3839 879.432 47.2362C877.705 46.0885 876.352 44.5033 875.375 42.4805C874.398 40.4464 873.909 38.0999 873.909 35.4408C873.909 32.7589 874.398 30.401 875.375 28.3669C876.352 26.3214 877.705 24.7305 879.432 23.5942C881.17 22.4464 883.17 21.8726 885.432 21.8726C887.693 21.8726 889.688 22.4464 891.415 23.5942C893.142 24.7419 894.494 26.3328 895.472 28.3669C896.46 30.401 896.955 32.7589 896.955 35.4408C896.955 38.0999 896.466 40.4464 895.489 42.4805C894.511 44.5033 893.153 46.0885 891.415 47.2362C889.688 48.3839 887.693 48.9578 885.432 48.9578ZM885.432 46.1794C887.25 46.1794 888.79 45.6908 890.051 44.7135C891.313 43.7362 892.267 42.4351 892.915 40.8101C893.574 39.1851 893.903 37.3953 893.903 35.4408C893.903 33.4862 893.574 31.6908 892.915 30.0544C892.267 28.418 891.313 27.1055 890.051 26.1169C888.79 25.1283 887.25 24.6339 885.432 24.6339C883.625 24.6339 882.085 25.1283 880.812 26.1169C879.551 27.1055 878.591 28.418 877.932 30.0544C877.284 31.6908 876.96 33.4862 876.96 35.4408C876.96 37.3953 877.284 39.1851 877.932 40.8101C878.591 42.4351 879.551 43.7362 880.812 44.7135C882.074 45.6908 883.614 46.1794 885.432 46.1794ZM903.615 48.4124V22.2305H906.564V26.2533H906.786C907.308 24.9351 908.217 23.8726 909.513 23.0658C910.82 22.2476 912.297 21.8385 913.945 21.8385C914.195 21.8385 914.473 21.8442 914.78 21.8555C915.087 21.8669 915.342 21.8783 915.547 21.8896V24.9749C915.411 24.9521 915.172 24.918 914.831 24.8726C914.49 24.8271 914.121 24.8044 913.723 24.8044C912.359 24.8044 911.143 25.0942 910.075 25.6737C909.018 26.2419 908.183 27.0317 907.57 28.043C906.956 29.0544 906.649 30.2078 906.649 31.5033V48.4124H903.615ZM920.724 48.4124V22.2305H923.673V26.2533H923.946C924.469 24.901 925.338 23.8385 926.554 23.0658C927.781 22.2817 929.253 21.8896 930.969 21.8896C932.776 21.8896 934.259 22.3158 935.418 23.168C936.588 24.0089 937.463 25.168 938.043 26.6453H938.264C938.855 25.1908 939.815 24.0374 941.145 23.1851C942.486 22.3214 944.111 21.8896 946.02 21.8896C948.452 21.8896 950.372 22.6567 951.781 24.1908C953.19 25.7135 953.895 27.9408 953.895 30.8726V48.4124H950.861V30.8726C950.861 28.8044 950.332 27.2533 949.276 26.2192C948.219 25.1851 946.827 24.668 945.099 24.668C943.099 24.668 941.56 25.2817 940.48 26.5089C939.401 27.7362 938.861 29.293 938.861 31.1794V48.4124H935.759V30.5999C935.759 28.8271 935.264 27.3953 934.276 26.3044C933.287 25.2135 931.895 24.668 930.099 24.668C928.895 24.668 927.81 24.9635 926.844 25.5544C925.889 26.1453 925.134 26.9692 924.577 28.026C924.031 29.0714 923.759 30.276 923.759 31.6396V48.4124H920.724ZM288.114 84.2305V86.8726H275.245V84.2305H288.114ZM279.268 110.412V80.3953C279.268 78.9862 279.592 77.7987 280.239 76.8328C280.898 75.8669 281.756 75.1339 282.813 74.6339C283.87 74.1339 284.989 73.8839 286.171 73.8839C286.967 73.8839 287.626 73.9521 288.148 74.0885C288.683 74.2135 289.103 74.3385 289.41 74.4635L288.523 77.1226C288.296 77.0544 288.018 76.9749 287.688 76.8839C287.359 76.793 286.944 76.7476 286.444 76.7476C285.126 76.7476 284.109 77.1169 283.393 77.8555C282.677 78.5942 282.319 79.651 282.319 81.026L282.302 110.412H279.268ZM303.268 110.958C301.006 110.958 299.006 110.384 297.268 109.236C295.54 108.088 294.188 106.503 293.211 104.481C292.234 102.446 291.745 100.1 291.745 97.4408C291.745 94.7589 292.234 92.401 293.211 90.3669C294.188 88.3214 295.54 86.7305 297.268 85.5942C299.006 84.4464 301.006 83.8726 303.268 83.8726C305.529 83.8726 307.523 84.4464 309.251 85.5942C310.978 86.7419 312.33 88.3328 313.308 90.3669C314.296 92.401 314.79 94.7589 314.79 97.4408C314.79 100.1 314.302 102.446 313.325 104.481C312.347 106.503 310.989 108.088 309.251 109.236C307.523 110.384 305.529 110.958 303.268 110.958ZM303.268 108.179C305.086 108.179 306.626 107.691 307.887 106.713C309.148 105.736 310.103 104.435 310.751 102.81C311.41 101.185 311.739 99.3953 311.739 97.4408C311.739 95.4862 311.41 93.6908 310.751 92.0544C310.103 90.418 309.148 89.1055 307.887 88.1169C306.626 87.1283 305.086 86.6339 303.268 86.6339C301.461 86.6339 299.921 87.1283 298.648 88.1169C297.387 89.1055 296.427 90.418 295.768 92.0544C295.12 93.6908 294.796 95.4862 294.796 97.4408C294.796 99.3953 295.12 101.185 295.768 102.81C296.427 104.435 297.387 105.736 298.648 106.713C299.91 107.691 301.45 108.179 303.268 108.179ZM321.451 110.412V84.2305H324.4V88.2533H324.621C325.144 86.9351 326.053 85.8726 327.349 85.0658C328.656 84.2476 330.133 83.8385 331.781 83.8385C332.031 83.8385 332.309 83.8442 332.616 83.8555C332.923 83.8669 333.178 83.8783 333.383 83.8896V86.9749C333.246 86.9521 333.008 86.918 332.667 86.8726C332.326 86.8271 331.957 86.8044 331.559 86.8044C330.195 86.8044 328.979 87.0942 327.911 87.6737C326.854 88.2419 326.019 89.0317 325.406 90.043C324.792 91.0544 324.485 92.2078 324.485 93.5033V110.412H321.451ZM358.759 110.412L349.197 75.5033H352.435L360.344 105.52H360.617L368.526 75.5033H372.208L380.117 105.52H380.39L388.299 75.5033H391.555L381.992 110.412H378.583L370.487 80.8044H370.265L362.168 110.412H358.759ZM404.833 110.958C402.39 110.958 400.276 110.39 398.492 109.253C396.708 108.106 395.327 106.52 394.35 104.498C393.384 102.463 392.901 100.123 392.901 97.4749C392.901 94.8385 393.384 92.4976 394.35 90.4521C395.327 88.3953 396.674 86.7874 398.39 85.6283C400.117 84.4578 402.112 83.8726 404.373 83.8726C405.793 83.8726 407.163 84.1339 408.481 84.6567C409.799 85.168 410.981 85.9578 412.026 87.026C413.083 88.0828 413.918 89.418 414.532 91.0317C415.146 92.6339 415.452 94.5317 415.452 96.7249V98.2249H394.998V95.5487H412.35C412.35 93.8669 412.009 92.3555 411.327 91.0146C410.657 89.6624 409.719 88.5942 408.515 87.8101C407.322 87.026 405.941 86.6339 404.373 86.6339C402.714 86.6339 401.254 87.0771 399.992 87.9635C398.731 88.8499 397.742 90.0203 397.026 91.4749C396.322 92.9294 395.964 94.5203 395.952 96.2476V97.8499C395.952 99.9294 396.31 101.748 397.026 103.304C397.754 104.85 398.782 106.049 400.112 106.901C401.441 107.753 403.015 108.179 404.833 108.179C406.072 108.179 407.157 107.986 408.089 107.6C409.032 107.213 409.822 106.696 410.458 106.049C411.106 105.39 411.594 104.668 411.924 103.884L414.805 104.821C414.407 105.924 413.754 106.941 412.844 107.873C411.947 108.804 410.822 109.554 409.469 110.123C408.129 110.679 406.583 110.958 404.833 110.958ZM422.769 110.412V75.5033H425.82V89.2249H426.093C426.434 88.4408 426.923 87.6339 427.559 86.8044C428.207 85.9749 429.053 85.2817 430.099 84.7249C431.156 84.1567 432.485 83.8726 434.087 83.8726C436.235 83.8726 438.121 84.4408 439.746 85.5771C441.371 86.7021 442.638 88.2817 443.548 90.3158C444.457 92.3385 444.911 94.6964 444.911 97.3896C444.911 100.094 444.457 102.463 443.548 104.498C442.65 106.532 441.388 108.117 439.763 109.253C438.15 110.39 436.275 110.958 434.138 110.958C432.548 110.958 431.218 110.674 430.15 110.106C429.093 109.537 428.241 108.838 427.593 108.009C426.945 107.168 426.445 106.35 426.093 105.554H425.718V110.412H422.769ZM425.769 97.3385C425.769 99.4521 426.082 101.327 426.707 102.963C427.343 104.588 428.252 105.867 429.434 106.799C430.627 107.719 432.07 108.179 433.763 108.179C435.502 108.179 436.974 107.702 438.178 106.748C439.383 105.782 440.298 104.481 440.923 102.844C441.548 101.208 441.86 99.3726 441.86 97.3385C441.86 95.3271 441.548 93.5146 440.923 91.901C440.309 90.2874 439.4 89.0089 438.195 88.0658C436.991 87.1112 435.513 86.6339 433.763 86.6339C432.059 86.6339 430.61 87.0942 429.417 88.0146C428.235 88.9237 427.332 90.1851 426.707 91.7987C426.082 93.401 425.769 95.2476 425.769 97.3385ZM462.792 110.89C460.644 110.89 458.724 110.503 457.031 109.731C455.337 108.946 453.996 107.861 453.008 106.475C452.019 105.088 451.496 103.492 451.44 101.685H454.661C454.718 102.958 455.11 104.071 455.837 105.026C456.565 105.969 457.531 106.708 458.735 107.242C459.94 107.765 461.281 108.026 462.758 108.026C464.371 108.026 465.792 107.725 467.019 107.123C468.258 106.52 469.224 105.696 469.917 104.651C470.621 103.594 470.974 102.401 470.974 101.071C470.974 99.6624 470.616 98.418 469.9 97.3385C469.184 96.2589 468.156 95.418 466.815 94.8158C465.485 94.2135 463.894 93.9124 462.042 93.9124H459.996V91.0487H462.042C463.553 91.0487 464.888 90.776 466.048 90.2305C467.218 89.6737 468.138 88.8953 468.809 87.8953C469.479 86.8953 469.815 85.7192 469.815 84.3669C469.815 83.0828 469.525 81.9521 468.945 80.9749C468.366 79.9976 467.548 79.2305 466.491 78.6737C465.445 78.1169 464.224 77.8385 462.826 77.8385C461.474 77.8385 460.235 78.0999 459.11 78.6226C457.985 79.1453 457.076 79.8839 456.383 80.8385C455.701 81.793 455.337 82.9237 455.292 84.2305H452.207C452.252 82.4124 452.752 80.8158 453.707 79.4408C454.673 78.0544 455.951 76.9749 457.542 76.2021C459.144 75.418 460.917 75.026 462.86 75.026C464.917 75.026 466.695 75.4464 468.195 76.2874C469.695 77.1283 470.854 78.2476 471.673 79.6453C472.502 81.0317 472.917 82.5601 472.917 84.2305C472.917 86.2192 472.377 87.9237 471.298 89.3442C470.218 90.7533 468.763 91.7305 466.934 92.276V92.4976C469.161 92.9408 470.911 93.9294 472.184 95.4635C473.468 96.9862 474.11 98.8555 474.11 101.071C474.11 102.935 473.621 104.611 472.644 106.1C471.667 107.577 470.326 108.748 468.621 109.611C466.928 110.463 464.985 110.89 462.792 110.89ZM495.263 120.231V84.2305H498.212V89.2249H498.57C498.934 88.4408 499.434 87.6396 500.07 86.8214C500.707 85.9919 501.548 85.293 502.593 84.7249C503.65 84.1567 504.979 83.8726 506.582 83.8726C508.741 83.8726 510.627 84.4408 512.241 85.5771C513.866 86.7021 515.127 88.2817 516.025 90.3158C516.934 92.3385 517.388 94.6964 517.388 97.3896C517.388 100.094 516.934 102.463 516.025 104.498C515.127 106.532 513.866 108.117 512.241 109.253C510.627 110.39 508.752 110.958 506.616 110.958C505.036 110.958 503.712 110.674 502.644 110.106C501.587 109.537 500.729 108.838 500.07 108.009C499.423 107.168 498.923 106.35 498.57 105.554H498.298V120.231H495.263ZM498.263 97.3385C498.263 99.4521 498.576 101.327 499.201 102.963C499.837 104.588 500.746 105.867 501.928 106.799C503.121 107.719 504.565 108.179 506.258 108.179C507.996 108.179 509.462 107.702 510.656 106.748C511.86 105.782 512.775 104.481 513.4 102.844C514.036 101.208 514.354 99.3726 514.354 97.3385C514.354 95.3271 514.042 93.5146 513.417 91.901C512.803 90.2874 511.894 89.0089 510.69 88.0658C509.485 87.1112 508.008 86.6339 506.258 86.6339C504.553 86.6339 503.104 87.0942 501.911 88.0146C500.718 88.9237 499.809 90.1851 499.184 91.7987C498.57 93.401 498.263 95.2476 498.263 97.3385ZM524.045 110.412V84.2305H526.994V88.2533H527.215C527.738 86.9351 528.647 85.8726 529.942 85.0658C531.249 84.2476 532.727 83.8385 534.374 83.8385C534.624 83.8385 534.903 83.8442 535.21 83.8555C535.516 83.8669 535.772 83.8783 535.977 83.8896V86.9749C535.84 86.9521 535.602 86.918 535.261 86.8726C534.92 86.8271 534.55 86.8044 534.153 86.8044C532.789 86.8044 531.573 87.0942 530.505 87.6737C529.448 88.2419 528.613 89.0317 527.999 90.043C527.386 91.0544 527.079 92.2078 527.079 93.5033V110.412H524.045ZM550.533 110.958C548.272 110.958 546.272 110.384 544.533 109.236C542.806 108.088 541.454 106.503 540.477 104.481C539.499 102.446 539.011 100.1 539.011 97.4408C539.011 94.7589 539.499 92.401 540.477 90.3669C541.454 88.3214 542.806 86.7305 544.533 85.5942C546.272 84.4464 548.272 83.8726 550.533 83.8726C552.795 83.8726 554.789 84.4464 556.516 85.5942C558.244 86.7419 559.596 88.3328 560.573 90.3669C561.562 92.401 562.056 94.7589 562.056 97.4408C562.056 100.1 561.567 102.446 560.59 104.481C559.613 106.503 558.255 108.088 556.516 109.236C554.789 110.384 552.795 110.958 550.533 110.958ZM550.533 108.179C552.352 108.179 553.891 107.691 555.153 106.713C556.414 105.736 557.369 104.435 558.016 102.81C558.675 101.185 559.005 99.3953 559.005 97.4408C559.005 95.4862 558.675 93.6908 558.016 92.0544C557.369 90.418 556.414 89.1055 555.153 88.1169C553.891 87.1283 552.352 86.6339 550.533 86.6339C548.727 86.6339 547.187 87.1283 545.914 88.1169C544.653 89.1055 543.692 90.418 543.033 92.0544C542.386 93.6908 542.062 95.4862 542.062 97.4408C542.062 99.3953 542.386 101.185 543.033 102.81C543.692 104.435 544.653 105.736 545.914 106.713C547.175 107.691 548.715 108.179 550.533 108.179ZM568.751 84.2305H571.802V112.952C571.802 114.441 571.523 115.725 570.967 116.804C570.421 117.895 569.626 118.736 568.58 119.327C567.535 119.929 566.273 120.231 564.796 120.231C564.683 120.231 564.569 120.231 564.455 120.231C564.342 120.231 564.217 120.225 564.08 120.213L564.114 117.367C564.228 117.367 564.336 117.367 564.438 117.367C564.54 117.367 564.648 117.367 564.762 117.367C566.012 117.367 566.989 116.981 567.694 116.208C568.398 115.435 568.751 114.35 568.751 112.952V84.2305ZM570.251 79.7305C569.637 79.7305 569.103 79.5203 568.648 79.0999C568.205 78.668 567.984 78.151 567.984 77.5487C567.984 76.9464 568.205 76.4351 568.648 76.0146C569.103 75.5828 569.637 75.3669 570.251 75.3669C570.876 75.3669 571.41 75.5828 571.853 76.0146C572.308 76.4351 572.535 76.9464 572.535 77.5487C572.535 78.151 572.308 78.668 571.853 79.0999C571.41 79.5203 570.876 79.7305 570.251 79.7305ZM590.411 110.958C587.968 110.958 585.854 110.39 584.07 109.253C582.286 108.106 580.906 106.52 579.928 104.498C578.962 102.463 578.479 100.123 578.479 97.4749C578.479 94.8385 578.962 92.4976 579.928 90.4521C580.906 88.3953 582.252 86.7874 583.968 85.6283C585.695 84.4578 587.69 83.8726 589.951 83.8726C591.371 83.8726 592.741 84.1339 594.059 84.6567C595.377 85.168 596.559 85.9578 597.604 87.026C598.661 88.0828 599.496 89.418 600.11 91.0317C600.724 92.6339 601.031 94.5317 601.031 96.7249V98.2249H580.576V95.5487H597.928C597.928 93.8669 597.587 92.3555 596.906 91.0146C596.235 89.6624 595.298 88.5942 594.093 87.8101C592.9 87.026 591.519 86.6339 589.951 86.6339C588.292 86.6339 586.832 87.0771 585.57 87.9635C584.309 88.8499 583.32 90.0203 582.604 91.4749C581.9 92.9294 581.542 94.5203 581.531 96.2476V97.8499C581.531 99.9294 581.888 101.748 582.604 103.304C583.332 104.85 584.36 106.049 585.69 106.901C587.019 107.753 588.593 108.179 590.411 108.179C591.65 108.179 592.735 107.986 593.667 107.6C594.61 107.213 595.4 106.696 596.036 106.049C596.684 105.39 597.173 104.668 597.502 103.884L600.383 104.821C599.985 105.924 599.332 106.941 598.423 107.873C597.525 108.804 596.4 109.554 595.048 110.123C593.707 110.679 592.161 110.958 590.411 110.958ZM617.944 110.958C615.603 110.958 613.563 110.373 611.825 109.202C610.097 108.032 608.756 106.429 607.802 104.395C606.847 102.361 606.37 100.043 606.37 97.4408C606.37 94.8158 606.853 92.4805 607.819 90.4351C608.796 88.3896 610.148 86.7874 611.876 85.6283C613.603 84.4578 615.609 83.8726 617.893 83.8726C619.643 83.8726 621.228 84.2135 622.648 84.8953C624.069 85.5658 625.239 86.5146 626.16 87.7419C627.092 88.9578 627.677 90.3783 627.915 92.0033H624.847C624.529 90.526 623.762 89.2646 622.546 88.2192C621.342 87.1624 619.808 86.6339 617.944 86.6339C616.273 86.6339 614.796 87.0885 613.512 87.9976C612.228 88.8953 611.222 90.151 610.495 91.7646C609.779 93.3669 609.421 95.2249 609.421 97.3385C609.421 99.4635 609.773 101.344 610.478 102.981C611.183 104.606 612.171 105.878 613.444 106.799C614.728 107.719 616.228 108.179 617.944 108.179C619.103 108.179 620.16 107.963 621.114 107.532C622.08 107.088 622.887 106.463 623.535 105.657C624.194 104.85 624.637 103.89 624.864 102.776H627.933C627.705 104.356 627.143 105.765 626.245 107.003C625.359 108.231 624.205 109.196 622.785 109.901C621.376 110.606 619.762 110.958 617.944 110.958ZM644.748 84.2305V86.8726H632.254V84.2305H644.748ZM636.157 77.9578H639.208V103.577C639.208 104.668 639.396 105.526 639.771 106.151C640.146 106.765 640.634 107.202 641.237 107.463C641.839 107.713 642.481 107.838 643.163 107.838C643.56 107.838 643.901 107.816 644.185 107.77C644.469 107.713 644.719 107.657 644.935 107.6L645.583 110.344C645.288 110.458 644.924 110.56 644.492 110.651C644.06 110.753 643.526 110.804 642.89 110.804C641.776 110.804 640.702 110.56 639.668 110.071C638.646 109.583 637.805 108.856 637.146 107.89C636.487 106.924 636.157 105.725 636.157 104.293V77.9578ZM668.761 89.9749L665.982 90.7589C665.71 89.9749 665.323 89.2646 664.823 88.6283C664.323 87.9919 663.67 87.4862 662.863 87.1112C662.067 86.7362 661.079 86.5487 659.897 86.5487C658.124 86.5487 656.67 86.9692 655.533 87.8101C654.397 88.651 653.829 89.7362 653.829 91.0658C653.829 92.1908 654.215 93.1055 654.988 93.8101C655.772 94.5033 656.977 95.0544 658.602 95.4635L662.556 96.4351C664.749 96.9692 666.391 97.8158 667.482 98.9749C668.585 100.134 669.136 101.588 669.136 103.338C669.136 104.816 668.727 106.128 667.908 107.276C667.09 108.424 665.948 109.327 664.482 109.986C663.028 110.634 661.34 110.958 659.42 110.958C656.863 110.958 654.755 110.384 653.096 109.236C651.437 108.077 650.374 106.407 649.908 104.225L652.823 103.509C653.198 105.066 653.931 106.242 655.022 107.037C656.124 107.833 657.573 108.231 659.369 108.231C661.38 108.231 662.988 107.782 664.192 106.884C665.397 105.975 665.999 104.838 665.999 103.475C665.999 102.418 665.647 101.532 664.942 100.816C664.238 100.088 663.17 99.5544 661.738 99.2135L657.46 98.1908C655.187 97.6453 653.505 96.7817 652.414 95.5999C651.323 94.418 650.778 92.9521 650.778 91.2021C650.778 89.7589 651.17 88.4919 651.954 87.401C652.738 86.2987 653.817 85.4351 655.192 84.8101C656.567 84.1851 658.136 83.8726 659.897 83.8726C662.295 83.8726 664.21 84.418 665.641 85.5089C667.085 86.5885 668.124 88.0771 668.761 89.9749ZM678.2 110.668C677.529 110.668 676.95 110.429 676.461 109.952C675.984 109.463 675.745 108.884 675.745 108.213C675.745 107.532 675.984 106.952 676.461 106.475C676.95 105.998 677.529 105.759 678.2 105.759C678.881 105.759 679.461 105.998 679.938 106.475C680.415 106.952 680.654 107.532 680.654 108.213C680.654 108.657 680.54 109.066 680.313 109.441C680.097 109.816 679.802 110.117 679.427 110.344C679.063 110.56 678.654 110.668 678.2 110.668Z" fill="white"/>
<path d="M238.936 48.9578C236.595 48.9578 234.555 48.3726 232.817 47.2021C231.089 46.0317 229.749 44.4294 228.794 42.3953C227.839 40.3612 227.362 38.043 227.362 35.4408C227.362 32.8158 227.845 30.4805 228.811 28.4351C229.788 26.3896 231.141 24.7874 232.868 23.6283C234.595 22.4578 236.601 21.8726 238.885 21.8726C240.635 21.8726 242.22 22.2135 243.641 22.8953C245.061 23.5658 246.232 24.5146 247.152 25.7419C248.084 26.9578 248.669 28.3783 248.908 30.0033H245.839C245.521 28.526 244.754 27.2646 243.538 26.2192C242.334 25.1624 240.8 24.6339 238.936 24.6339C237.266 24.6339 235.788 25.0885 234.504 25.9976C233.22 26.8953 232.214 28.151 231.487 29.7646C230.771 31.3669 230.413 33.2249 230.413 35.3385C230.413 37.4635 230.766 39.3442 231.47 40.9805C232.175 42.6055 233.163 43.8783 234.436 44.7987C235.72 45.7192 237.22 46.1794 238.936 46.1794C240.095 46.1794 241.152 45.9635 242.107 45.5317C243.072 45.0885 243.879 44.4635 244.527 43.6567C245.186 42.8499 245.629 41.8896 245.857 40.776H248.925C248.697 42.3555 248.135 43.7646 247.237 45.0033C246.351 46.2305 245.197 47.1964 243.777 47.901C242.368 48.6055 240.754 48.9578 238.936 48.9578ZM265.604 48.9578C263.342 48.9578 261.342 48.3839 259.604 47.2362C257.876 46.0885 256.524 44.5033 255.547 42.4805C254.57 40.4464 254.081 38.0999 254.081 35.4408C254.081 32.7589 254.57 30.401 255.547 28.3669C256.524 26.3214 257.876 24.7305 259.604 23.5942C261.342 22.4464 263.342 21.8726 265.604 21.8726C267.865 21.8726 269.859 22.4464 271.587 23.5942C273.314 24.7419 274.666 26.3328 275.643 28.3669C276.632 30.401 277.126 32.7589 277.126 35.4408C277.126 38.0999 276.638 40.4464 275.661 42.4805C274.683 44.5033 273.325 46.0885 271.587 47.2362C269.859 48.3839 267.865 48.9578 265.604 48.9578ZM265.604 46.1794C267.422 46.1794 268.962 45.6908 270.223 44.7135C271.484 43.7362 272.439 42.4351 273.087 40.8101C273.746 39.1851 274.075 37.3953 274.075 35.4408C274.075 33.4862 273.746 31.6908 273.087 30.0544C272.439 28.418 271.484 27.1055 270.223 26.1169C268.962 25.1283 267.422 24.6339 265.604 24.6339C263.797 24.6339 262.257 25.1283 260.984 26.1169C259.723 27.1055 258.763 28.418 258.104 30.0544C257.456 31.6908 257.132 33.4862 257.132 35.4408C257.132 37.3953 257.456 39.1851 258.104 40.8101C258.763 42.4351 259.723 43.7362 260.984 44.7135C262.246 45.6908 263.786 46.1794 265.604 46.1794ZM283.787 48.4124V22.2305H286.736V26.2533H287.009C287.531 24.901 288.401 23.8385 289.616 23.0658C290.844 22.2817 292.315 21.8896 294.031 21.8896C295.838 21.8896 297.321 22.3158 298.48 23.168C299.651 24.0089 300.526 25.168 301.105 26.6453H301.327C301.918 25.1908 302.878 24.0374 304.207 23.1851C305.548 22.3214 307.173 21.8896 309.082 21.8896C311.514 21.8896 313.435 22.6567 314.844 24.1908C316.253 25.7135 316.957 27.9408 316.957 30.8726V48.4124H313.923V30.8726C313.923 28.8044 313.395 27.2533 312.338 26.2192C311.281 25.1851 309.889 24.668 308.162 24.668C306.162 24.668 304.622 25.2817 303.543 26.5089C302.463 27.7362 301.923 29.293 301.923 31.1794V48.4124H298.821V30.5999C298.821 28.8271 298.327 27.3953 297.338 26.3044C296.349 25.2135 294.957 24.668 293.162 24.668C291.957 24.668 290.872 24.9635 289.906 25.5544C288.952 26.1453 288.196 26.9692 287.639 28.026C287.094 29.0714 286.821 30.276 286.821 31.6396V48.4124H283.787ZM335.763 22.2305V24.8726H322.893V22.2305H335.763ZM326.916 48.4124V18.3953C326.916 16.9862 327.24 15.7987 327.888 14.8328C328.547 13.8669 329.405 13.1339 330.462 12.6339C331.518 12.1339 332.638 11.8839 333.82 11.8839C334.615 11.8839 335.274 11.9521 335.797 12.0885C336.331 12.2135 336.751 12.3385 337.058 12.4635L336.172 15.1226C335.945 15.0544 335.666 14.9749 335.337 14.8839C335.007 14.793 334.592 14.7476 334.092 14.7476C332.774 14.7476 331.757 15.1169 331.041 15.8555C330.325 16.5942 329.967 17.651 329.967 19.026L329.95 48.4124H326.916ZM350.916 48.9578C348.655 48.9578 346.655 48.3839 344.916 47.2362C343.189 46.0885 341.837 44.5033 340.859 42.4805C339.882 40.4464 339.393 38.0999 339.393 35.4408C339.393 32.7589 339.882 30.401 340.859 28.3669C341.837 26.3214 343.189 24.7305 344.916 23.5942C346.655 22.4464 348.655 21.8726 350.916 21.8726C353.178 21.8726 355.172 22.4464 356.899 23.5942C358.626 24.7419 359.979 26.3328 360.956 28.3669C361.945 30.401 362.439 32.7589 362.439 35.4408C362.439 38.0999 361.95 40.4464 360.973 42.4805C359.996 44.5033 358.638 46.0885 356.899 47.2362C355.172 48.3839 353.178 48.9578 350.916 48.9578ZM350.916 46.1794C352.734 46.1794 354.274 45.6908 355.536 44.7135C356.797 43.7362 357.751 42.4351 358.399 40.8101C359.058 39.1851 359.388 37.3953 359.388 35.4408C359.388 33.4862 359.058 31.6908 358.399 30.0544C357.751 28.418 356.797 27.1055 355.536 26.1169C354.274 25.1283 352.734 24.6339 350.916 24.6339C349.109 24.6339 347.57 25.1283 346.297 26.1169C345.036 27.1055 344.075 28.418 343.416 30.0544C342.768 31.6908 342.445 33.4862 342.445 35.4408C342.445 37.3953 342.768 39.1851 343.416 40.8101C344.075 42.4351 345.036 43.7362 346.297 44.7135C347.558 45.6908 349.098 46.1794 350.916 46.1794ZM369.099 48.4124V22.2305H372.048V26.2533H372.27C372.793 24.9351 373.702 23.8726 374.997 23.0658C376.304 22.2476 377.781 21.8385 379.429 21.8385C379.679 21.8385 379.957 21.8442 380.264 21.8555C380.571 21.8669 380.827 21.8783 381.031 21.8896V24.9749C380.895 24.9521 380.656 24.918 380.315 24.8726C379.974 24.8271 379.605 24.8044 379.207 24.8044C377.844 24.8044 376.628 25.0942 375.56 25.6737C374.503 26.2419 373.668 27.0317 373.054 28.043C372.44 29.0544 372.134 30.2078 372.134 31.5033V48.4124H369.099ZM398.162 22.2305V24.8726H385.668V22.2305H398.162ZM389.571 15.9578H392.622V41.5771C392.622 42.668 392.81 43.526 393.185 44.151C393.56 44.7646 394.048 45.2021 394.651 45.4635C395.253 45.7135 395.895 45.8385 396.577 45.8385C396.974 45.8385 397.315 45.8158 397.599 45.7703C397.884 45.7135 398.134 45.6567 398.349 45.5999L398.997 48.3442C398.702 48.4578 398.338 48.5601 397.906 48.651C397.474 48.7533 396.94 48.8044 396.304 48.8044C395.19 48.8044 394.116 48.5601 393.082 48.0714C392.06 47.5828 391.219 46.8555 390.56 45.8896C389.901 44.9237 389.571 43.7249 389.571 42.293V15.9578ZM412.365 49.0089C410.786 49.0089 409.342 48.7021 408.036 48.0885C406.729 47.4635 405.689 46.5658 404.916 45.3953C404.143 44.2135 403.757 42.7817 403.757 41.0999C403.757 39.8044 404.001 38.7135 404.49 37.8271C404.979 36.9408 405.672 36.2135 406.57 35.6453C407.467 35.0771 408.53 34.6283 409.757 34.2987C410.984 33.9692 412.337 33.7135 413.814 33.5317C415.28 33.3499 416.518 33.1908 417.53 33.0544C418.553 32.918 419.331 32.7021 419.865 32.4067C420.399 32.1112 420.666 31.6339 420.666 30.9749V30.3612C420.666 28.5771 420.132 27.1737 419.064 26.151C418.007 25.1169 416.484 24.5999 414.496 24.5999C412.609 24.5999 411.07 25.0146 409.876 25.8442C408.695 26.6737 407.865 27.651 407.388 28.776L404.507 27.7362C405.098 26.3044 405.916 25.1624 406.962 24.3101C408.007 23.4464 409.178 22.8271 410.473 22.4521C411.768 22.0658 413.081 21.8726 414.411 21.8726C415.411 21.8726 416.45 22.0033 417.53 22.2646C418.621 22.526 419.632 22.9805 420.564 23.6283C421.496 24.2646 422.251 25.1567 422.831 26.3044C423.411 27.4408 423.7 28.8839 423.7 30.6339V48.4124H420.666V44.2703H420.479C420.115 45.043 419.575 45.793 418.859 46.5203C418.143 47.2476 417.246 47.8442 416.166 48.3101C415.087 48.776 413.82 49.0089 412.365 49.0089ZM412.774 46.2305C414.388 46.2305 415.786 45.8726 416.967 45.1567C418.149 44.4408 419.058 43.4919 419.695 42.3101C420.342 41.1169 420.666 39.8044 420.666 38.3726V34.5885C420.439 34.8044 420.058 34.9976 419.524 35.168C419.001 35.3385 418.393 35.4919 417.7 35.6283C417.018 35.7533 416.337 35.8612 415.655 35.9521C414.973 36.043 414.359 36.1226 413.814 36.1908C412.337 36.3726 411.075 36.6567 410.03 37.043C408.984 37.4294 408.183 37.9635 407.626 38.6453C407.07 39.3158 406.791 40.1794 406.791 41.2362C406.791 42.8271 407.359 44.0601 408.496 44.9351C409.632 45.7987 411.058 46.2305 412.774 46.2305ZM432.402 48.4124V13.5033H435.453V27.2249H435.726C436.067 26.4408 436.555 25.6339 437.192 24.8044C437.839 23.9749 438.686 23.2817 439.732 22.7249C440.788 22.1567 442.118 21.8726 443.72 21.8726C445.868 21.8726 447.754 22.4408 449.379 23.5771C451.004 24.7021 452.271 26.2817 453.18 28.3158C454.089 30.3385 454.544 32.6964 454.544 35.3896C454.544 38.0942 454.089 40.4635 453.18 42.4976C452.283 44.5317 451.021 46.1169 449.396 47.2533C447.783 48.3896 445.908 48.9578 443.771 48.9578C442.18 48.9578 440.851 48.6737 439.783 48.1055C438.726 47.5374 437.874 46.8385 437.226 46.0089C436.578 45.168 436.078 44.3499 435.726 43.5544H435.351V48.4124H432.402ZM435.402 35.3385C435.402 37.4521 435.714 39.3271 436.339 40.9635C436.976 42.5885 437.885 43.8669 439.067 44.7987C440.26 45.7192 441.703 46.1794 443.396 46.1794C445.135 46.1794 446.607 45.7021 447.811 44.7476C449.016 43.7817 449.93 42.4805 450.555 40.8442C451.18 39.2078 451.493 37.3726 451.493 35.3385C451.493 33.3271 451.18 31.5146 450.555 29.901C449.942 28.2874 449.033 27.0089 447.828 26.0658C446.624 25.1112 445.146 24.6339 443.396 24.6339C441.692 24.6339 440.243 25.0942 439.05 26.0146C437.868 26.9237 436.964 28.1851 436.339 29.7987C435.714 31.401 435.402 33.2476 435.402 35.3385ZM464.243 13.5033V48.4124H461.209V13.5033H464.243ZM482.857 48.9578C480.413 48.9578 478.3 48.3896 476.516 47.2533C474.732 46.1055 473.351 44.5203 472.374 42.4976C471.408 40.4635 470.925 38.1226 470.925 35.4749C470.925 32.8385 471.408 30.4976 472.374 28.4521C473.351 26.3953 474.697 24.7874 476.413 23.6283C478.141 22.4578 480.135 21.8726 482.396 21.8726C483.817 21.8726 485.186 22.1339 486.504 22.6567C487.822 23.168 489.004 23.9578 490.05 25.026C491.107 26.0828 491.942 27.418 492.555 29.0317C493.169 30.6339 493.476 32.5317 493.476 34.7249V36.2249H473.021V33.5487H490.374C490.374 31.8669 490.033 30.3555 489.351 29.0146C488.68 27.6624 487.743 26.5942 486.538 25.8101C485.345 25.026 483.964 24.6339 482.396 24.6339C480.737 24.6339 479.277 25.0771 478.016 25.9635C476.754 26.8499 475.766 28.0203 475.05 29.4749C474.345 30.9294 473.987 32.5203 473.976 34.2476V35.8499C473.976 37.9294 474.334 39.7476 475.05 41.3044C475.777 42.8499 476.805 44.0487 478.135 44.901C479.464 45.7533 481.038 46.1794 482.857 46.1794C484.095 46.1794 485.18 45.9862 486.112 45.5999C487.055 45.2135 487.845 44.6964 488.482 44.0487C489.129 43.3896 489.618 42.668 489.947 41.8839L492.828 42.8214C492.43 43.9237 491.777 44.9408 490.868 45.8726C489.97 46.8044 488.845 47.5544 487.493 48.1226C486.152 48.6794 484.607 48.9578 482.857 48.9578Z" fill="url(#paint2_linear_205_1347)"/>
<path d="M628.706 27.9749L625.928 28.7589C625.655 27.9749 625.268 27.2646 624.768 26.6283C624.268 25.9919 623.615 25.4862 622.808 25.1112C622.013 24.7362 621.024 24.5487 619.842 24.5487C618.07 24.5487 616.615 24.9692 615.479 25.8101C614.342 26.651 613.774 27.7362 613.774 29.0658C613.774 30.1908 614.161 31.1055 614.933 31.8101C615.717 32.5033 616.922 33.0544 618.547 33.4635L622.501 34.4351C624.695 34.9692 626.337 35.8158 627.428 36.9749C628.53 38.1339 629.081 39.5885 629.081 41.3385C629.081 42.8158 628.672 44.1283 627.854 45.276C627.036 46.4237 625.893 47.3271 624.428 47.9862C622.973 48.6339 621.286 48.9578 619.365 48.9578C616.808 48.9578 614.7 48.3839 613.041 47.2362C611.382 46.0771 610.32 44.4067 609.854 42.2249L612.768 41.5089C613.143 43.0658 613.876 44.2419 614.967 45.0374C616.07 45.8328 617.518 46.2305 619.314 46.2305C621.325 46.2305 622.933 45.7817 624.138 44.8839C625.342 43.9749 625.945 42.8385 625.945 41.4749C625.945 40.418 625.592 39.5317 624.888 38.8158C624.183 38.0885 623.115 37.5544 621.683 37.2135L617.405 36.1908C615.132 35.6453 613.45 34.7817 612.359 33.5999C611.268 32.418 610.723 30.9521 610.723 29.2021C610.723 27.7589 611.115 26.4919 611.899 25.401C612.683 24.2987 613.763 23.4351 615.138 22.8101C616.513 22.1851 618.081 21.8726 619.842 21.8726C622.24 21.8726 624.155 22.418 625.587 23.5089C627.03 24.5885 628.07 26.0771 628.706 27.9749ZM646.31 48.9578C643.866 48.9578 641.753 48.3896 639.969 47.2533C638.185 46.1055 636.804 44.5203 635.827 42.4976C634.861 40.4635 634.378 38.1226 634.378 35.4749C634.378 32.8385 634.861 30.4976 635.827 28.4521C636.804 26.3953 638.151 24.7874 639.866 23.6283C641.594 22.4578 643.588 21.8726 645.849 21.8726C647.27 21.8726 648.639 22.1339 649.957 22.6567C651.276 23.168 652.457 23.9578 653.503 25.026C654.56 26.0828 655.395 27.418 656.009 29.0317C656.622 30.6339 656.929 32.5317 656.929 34.7249V36.2249H636.474V33.5487H653.827C653.827 31.8669 653.486 30.3555 652.804 29.0146C652.134 27.6624 651.196 26.5942 649.991 25.8101C648.798 25.026 647.418 24.6339 645.849 24.6339C644.19 24.6339 642.73 25.0771 641.469 25.9635C640.207 26.8499 639.219 28.0203 638.503 29.4749C637.798 30.9294 637.44 32.5203 637.429 34.2476V35.8499C637.429 37.9294 637.787 39.7476 638.503 41.3044C639.23 42.8499 640.259 44.0487 641.588 44.901C642.918 45.7533 644.491 46.1794 646.31 46.1794C647.548 46.1794 648.634 45.9862 649.565 45.5999C650.509 45.2135 651.298 44.6964 651.935 44.0487C652.582 43.3896 653.071 42.668 653.401 41.8839L656.281 42.8214C655.884 43.9237 655.23 44.9408 654.321 45.8726C653.423 46.8044 652.298 47.5544 650.946 48.1226C649.605 48.6794 648.06 48.9578 646.31 48.9578ZM673.842 48.9578C671.501 48.9578 669.462 48.3726 667.723 47.2021C665.996 46.0317 664.655 44.4294 663.7 42.3953C662.746 40.3612 662.268 38.043 662.268 35.4408C662.268 32.8158 662.751 30.4805 663.717 28.4351C664.695 26.3896 666.047 24.7874 667.774 23.6283C669.501 22.4578 671.507 21.8726 673.791 21.8726C675.541 21.8726 677.126 22.2135 678.547 22.8953C679.967 23.5658 681.138 24.5146 682.058 25.7419C682.99 26.9578 683.575 28.3783 683.814 30.0033H680.746C680.428 28.526 679.661 27.2646 678.445 26.2192C677.24 25.1624 675.706 24.6339 673.842 24.6339C672.172 24.6339 670.695 25.0885 669.411 25.9976C668.126 26.8953 667.121 28.151 666.393 29.7646C665.678 31.3669 665.32 33.2249 665.32 35.3385C665.32 37.4635 665.672 39.3442 666.376 40.9805C667.081 42.6055 668.07 43.8783 669.342 44.7987C670.626 45.7192 672.126 46.1794 673.842 46.1794C675.001 46.1794 676.058 45.9635 677.013 45.5317C677.979 45.0885 678.786 44.4635 679.433 43.6567C680.092 42.8499 680.536 41.8896 680.763 40.776H683.831C683.604 42.3555 683.041 43.7646 682.143 45.0033C681.257 46.2305 680.104 47.1964 678.683 47.901C677.274 48.6055 675.661 48.9578 673.842 48.9578ZM706.97 38.4067V22.2305H710.004V48.4124H706.97V44.0658H706.732C706.118 45.4067 705.146 46.526 703.817 47.4237C702.487 48.3101 700.862 48.7533 698.942 48.7533C697.271 48.7533 695.788 48.3896 694.493 47.6624C693.197 46.9237 692.18 45.8442 691.442 44.4237C690.703 43.0033 690.334 41.2589 690.334 39.1908V22.2305H693.368V39.0033C693.368 41.0487 693.97 42.6964 695.175 43.9464C696.379 45.1851 697.925 45.8044 699.811 45.8044C700.993 45.8044 702.129 45.5203 703.22 44.9521C704.311 44.3839 705.209 43.5544 705.913 42.4635C706.618 41.3612 706.97 40.0089 706.97 38.4067ZM718.037 48.4124V22.2305H720.986V26.2533H721.207C721.73 24.9351 722.639 23.8726 723.935 23.0658C725.241 22.2476 726.719 21.8385 728.366 21.8385C728.616 21.8385 728.895 21.8442 729.202 21.8555C729.509 21.8669 729.764 21.8783 729.969 21.8896V24.9749C729.832 24.9521 729.594 24.918 729.253 24.8726C728.912 24.8271 728.543 24.8044 728.145 24.8044C726.781 24.8044 725.565 25.0942 724.497 25.6737C723.44 26.2419 722.605 27.0317 721.991 28.043C721.378 29.0544 721.071 30.2078 721.071 31.5033V48.4124H718.037ZM744.935 48.9578C742.491 48.9578 740.378 48.3896 738.594 47.2533C736.81 46.1055 735.429 44.5203 734.452 42.4976C733.486 40.4635 733.003 38.1226 733.003 35.4749C733.003 32.8385 733.486 30.4976 734.452 28.4521C735.429 26.3953 736.776 24.7874 738.491 23.6283C740.219 22.4578 742.213 21.8726 744.474 21.8726C745.895 21.8726 747.264 22.1339 748.582 22.6567C749.901 23.168 751.082 23.9578 752.128 25.026C753.185 26.0828 754.02 27.418 754.634 29.0317C755.247 30.6339 755.554 32.5317 755.554 34.7249V36.2249H735.099V33.5487H752.452C752.452 31.8669 752.111 30.3555 751.429 29.0146C750.759 27.6624 749.821 26.5942 748.616 25.8101C747.423 25.026 746.043 24.6339 744.474 24.6339C742.815 24.6339 741.355 25.0771 740.094 25.9635C738.832 26.8499 737.844 28.0203 737.128 29.4749C736.423 30.9294 736.065 32.5203 736.054 34.2476V35.8499C736.054 37.9294 736.412 39.7476 737.128 41.3044C737.855 42.8499 738.884 44.0487 740.213 44.901C741.543 45.7533 743.116 46.1794 744.935 46.1794C746.173 46.1794 747.259 45.9862 748.19 45.5999C749.134 45.2135 749.923 44.6964 750.56 44.0487C751.207 43.3896 751.696 42.668 752.026 41.8839L754.906 42.8214C754.509 43.9237 753.855 44.9408 752.946 45.8726C752.048 46.8044 750.923 47.5544 749.571 48.1226C748.23 48.6794 746.685 48.9578 744.935 48.9578Z" fill="url(#paint3_linear_205_1347)"/>
<defs>
<linearGradient id="paint0_linear_205_1347" x1="410.257" y1="46.098" x2="402.053" y2="166.82" gradientUnits="userSpaceOnUse">
<stop offset="0.0001" stop-color="#333749"/>
<stop offset="1" stop-opacity="0"/>
<stop offset="1" stop-color="#1E202E" stop-opacity="0"/>
</linearGradient>
<linearGradient id="paint1_linear_205_1347" x1="379.248" y1="20.0366" x2="434.929" y2="133.794" gradientUnits="userSpaceOnUse">
<stop offset="0.215792" stop-color="#C000DF"/>
<stop offset="1" stop-color="#A502BF" stop-opacity="0"/>
</linearGradient>
<linearGradient id="paint2_linear_205_1347" x1="344.5" y1="-4" x2="338.757" y2="53.9123" gradientUnits="userSpaceOnUse">
<stop stop-color="#A502BF"/>
<stop offset="1" stop-color="#F29DFF"/>
</linearGradient>
<linearGradient id="paint3_linear_205_1347" x1="645.5" y1="12" x2="641.959" y2="52.4124" gradientUnits="userSpaceOnUse">
<stop stop-color="#A502BF"/>
<stop offset="1" stop-color="#ED93FB"/>
</linearGradient>
</defs>
</svg>
