<svg width="211" height="210" viewBox="0 0 211 210" fill="none" xmlns="http://www.w3.org/2000/svg">
<circle cx="105.5" cy="104.912" r="63" transform="rotate(18.8979 105.5 104.912)" stroke="url(#paint0_linear_205_1411)"/>
<circle cx="105.5" cy="104.912" r="82" transform="rotate(18.8979 105.5 104.912)" stroke="url(#paint1_linear_205_1411)"/>
<g clip-path="url(#clip0_205_1411)">
<g filter="url(#filter0_d_205_1411)">
<path d="M92.4083 140.067C113.57 147.312 136.598 136.029 143.842 114.867C151.087 93.7055 139.805 70.6777 118.643 63.4332C97.4809 56.1888 74.453 67.4711 67.2086 88.6329C59.9641 109.795 71.2464 132.823 92.4083 140.067Z" fill="url(#paint2_linear_205_1411)" shape-rendering="crispEdges"/>
<path d="M143.369 114.705C136.214 135.606 113.471 146.749 92.5702 139.594C71.6696 132.439 60.5266 109.695 67.6816 88.7949C74.8366 67.8943 97.5802 56.7513 118.481 63.9063C139.381 71.0613 150.524 93.8048 143.369 114.705Z" stroke="url(#paint3_linear_205_1411)" shape-rendering="crispEdges"/>
</g>
<path d="M112.114 98.4678L114.146 92.7927L127.122 97.4375L130.217 88.7902L94.8823 76.1422L91.787 84.7894L104.763 89.4342L102.735 95.0989C92.0188 91.812 83.341 91.054 82.4439 93.5602C81.5468 96.0663 88.7344 100.987 99.1026 105.248L92.5969 123.423L101.979 126.781L108.485 108.606C119.181 111.886 127.838 112.636 128.735 110.13C129.632 107.624 122.465 102.71 112.118 98.4574M109.037 107.063C108.765 106.977 107.378 106.574 104.354 105.492C101.931 104.625 100.259 103.944 99.669 103.698C90.5035 99.9617 84.1263 95.8447 84.8195 93.9082C85.5127 91.9716 93.0436 92.8331 102.512 95.7551L100.244 102.093C100.84 102.353 102.542 103.079 104.955 103.943C107.845 104.977 109.349 105.376 109.626 105.451L111.895 99.1136C121.046 102.857 127.403 106.966 126.709 108.903C126.016 110.839 118.496 109.982 109.048 107.067" fill="white"/>
</g>
<defs>
<filter id="filter0_d_205_1411" x="-34.9855" y="-38.7609" width="281.022" height="281.022" filterUnits="userSpaceOnUse" color-interpolation-filters="sRGB">
<feFlood flood-opacity="0" result="BackgroundImageFix"/>
<feColorMatrix in="SourceAlpha" type="matrix" values="0 0 0 0 0 0 0 0 0 0 0 0 0 0 0 0 0 0 127 0" result="hardAlpha"/>
<feOffset/>
<feGaussianBlur stdDeviation="50"/>
<feComposite in2="hardAlpha" operator="out"/>
<feColorMatrix type="matrix" values="0 0 0 0 0 0 0 0 0 0 0 0 0 0 0 0 0 0 0.25 0"/>
<feBlend mode="normal" in2="BackgroundImageFix" result="effect1_dropShadow_205_1411"/>
<feBlend mode="normal" in="SourceGraphic" in2="effect1_dropShadow_205_1411" result="shape"/>
</filter>
<linearGradient id="paint0_linear_205_1411" x1="105.5" y1="41.4124" x2="105.5" y2="168.412" gradientUnits="userSpaceOnUse">
<stop stop-color="#7A8CEC"/>
<stop offset="1" stop-color="#233BB7" stop-opacity="0"/>
</linearGradient>
<linearGradient id="paint1_linear_205_1411" x1="105.5" y1="22.4124" x2="105.5" y2="187.412" gradientUnits="userSpaceOnUse">
<stop stop-color="#7A8CEC"/>
<stop offset="1" stop-color="#233BB7" stop-opacity="0"/>
</linearGradient>
<linearGradient id="paint2_linear_205_1411" x1="118.643" y1="63.4332" x2="92.4083" y2="140.067" gradientUnits="userSpaceOnUse">
<stop stop-color="#A502BF"/>
<stop offset="1" stop-color="#233BB7" stop-opacity="0"/>
</linearGradient>
<linearGradient id="paint3_linear_205_1411" x1="118.643" y1="63.4332" x2="92.4083" y2="140.067" gradientUnits="userSpaceOnUse">
<stop stop-color="#90A0F4"/>
<stop offset="0.380208" stop-color="#233BB7"/>
<stop offset="1" stop-color="#233BB7" stop-opacity="0"/>
</linearGradient>
<clipPath id="clip0_205_1411">
<rect width="81" height="81" fill="white" transform="translate(80.3258 50.316) rotate(18.8979)"/>
</clipPath>
</defs>
</svg>
