<svg width="213" height="214" viewBox="0 0 213 214" fill="none" xmlns="http://www.w3.org/2000/svg">
<circle cx="106.5" cy="106.912" r="63" transform="rotate(-20.7853 106.5 106.912)" stroke="url(#paint0_linear_205_1412)"/>
<circle cx="106.5" cy="106.912" r="82" transform="rotate(-20.7853 106.5 106.912)" stroke="url(#paint1_linear_205_1412)"/>
<g clip-path="url(#clip0_205_1412)">
<g filter="url(#filter0_d_205_1412)">
<path d="M92.1279 69.0482C113.045 61.1088 136.429 71.6337 144.364 92.5402C152.3 113.447 141.779 136.841 120.872 144.776C99.9657 152.712 76.5753 142.201 68.6359 121.284C60.6965 100.368 71.2214 76.9837 92.1279 69.0482Z" fill="url(#paint2_linear_205_1412)" shape-rendering="crispEdges"/>
<path d="M92.3054 69.5157C112.964 61.6743 136.059 72.0692 143.897 92.7177C151.734 113.366 141.343 136.472 120.695 144.309C100.046 152.147 76.9448 141.766 69.1034 121.107C61.262 100.448 71.6569 77.3532 92.3054 69.5157Z" stroke="url(#paint3_linear_205_1412)" shape-rendering="crispEdges"/>
</g>
<path d="M95.158 106.57L98.726 98.6745L99.4685 97.0043L101.253 93.0565L114.728 99.1422L118.234 91.2698L96.9276 81.6623L87.3112 103.007L95.158 106.57Z" fill="white"/>
<path d="M104.351 101.193L100.814 109.058L108.679 112.595L112.216 104.73L104.351 101.193Z" fill="white"/>
<path d="M117.819 107.287L111.764 120.75L107.03 118.629L106.16 118.23L98.2494 114.715L94.7275 122.546L116.085 132.134L125.65 110.809L117.819 107.287Z" fill="white"/>
<path d="M84.8056 108.639L81.2686 116.504L89.1334 120.041L92.6704 112.176L84.8056 108.639Z" fill="white"/>
<path d="M123.873 93.8016L120.336 101.666L128.201 105.203L131.738 97.3386L123.873 93.8016Z" fill="white"/>
</g>
<defs>
<filter id="filter0_d_205_1412" x="-34.0111" y="-33.5987" width="281.021" height="281.022" filterUnits="userSpaceOnUse" color-interpolation-filters="sRGB">
<feFlood flood-opacity="0" result="BackgroundImageFix"/>
<feColorMatrix in="SourceAlpha" type="matrix" values="0 0 0 0 0 0 0 0 0 0 0 0 0 0 0 0 0 0 127 0" result="hardAlpha"/>
<feOffset/>
<feGaussianBlur stdDeviation="50"/>
<feComposite in2="hardAlpha" operator="out"/>
<feColorMatrix type="matrix" values="0 0 0 0 0 0 0 0 0 0 0 0 0 0 0 0 0 0 0.25 0"/>
<feBlend mode="normal" in2="BackgroundImageFix" result="effect1_dropShadow_205_1412"/>
<feBlend mode="normal" in="SourceGraphic" in2="effect1_dropShadow_205_1412" result="shape"/>
</filter>
<linearGradient id="paint0_linear_205_1412" x1="106.5" y1="43.4124" x2="106.5" y2="170.412" gradientUnits="userSpaceOnUse">
<stop stop-color="#7A8CEC"/>
<stop offset="1" stop-color="#233BB7" stop-opacity="0"/>
</linearGradient>
<linearGradient id="paint1_linear_205_1412" x1="106.5" y1="24.4124" x2="106.5" y2="189.412" gradientUnits="userSpaceOnUse">
<stop stop-color="#7A8CEC"/>
<stop offset="1" stop-color="#233BB7" stop-opacity="0"/>
</linearGradient>
<linearGradient id="paint2_linear_205_1412" x1="92.1279" y1="69.0482" x2="120.872" y2="144.776" gradientUnits="userSpaceOnUse">
<stop stop-color="#A502BF"/>
<stop offset="1" stop-color="#233BB7" stop-opacity="0"/>
</linearGradient>
<linearGradient id="paint3_linear_205_1412" x1="92.1279" y1="69.0482" x2="120.872" y2="144.776" gradientUnits="userSpaceOnUse">
<stop stop-color="#90A0F4"/>
<stop offset="0.380208" stop-color="#233BB7"/>
<stop offset="1" stop-color="#233BB7" stop-opacity="0"/>
</linearGradient>
<clipPath id="clip0_205_1412">
<rect width="81" height="81" fill="white" transform="translate(54.2638 83.4203) rotate(-20.7853)"/>
</clipPath>
</defs>
</svg>
