<svg width="43" height="43" viewBox="0 0 43 43" fill="none" xmlns="http://www.w3.org/2000/svg">
<rect x="0.5" y="0.5" width="42" height="42" rx="7.5" stroke="#353535"/>
<path d="M22.5 13.4214V11.8071C22.5 11.5931 22.4122 11.3878 22.2559 11.2364C22.0996 11.085 21.8877 11 21.6667 11C21.4457 11 21.2337 11.085 21.0774 11.2364C20.9211 11.3878 20.8333 11.5931 20.8333 11.8071V13.4214C19.2868 13.4231 17.8041 14.0189 16.7105 15.0781C15.6169 16.1373 15.0018 17.5734 15 19.0713V23.9141C15 25.6267 15.7024 27.2691 16.9526 28.48C18.2029 29.6909 19.8986 30.3712 21.6667 30.3712C23.4348 30.3712 25.1305 29.6909 26.3807 28.48C27.631 27.2691 28.3333 25.6267 28.3333 23.9141V19.0713C28.3316 17.5734 27.7164 16.1373 26.6228 15.0781C25.5293 14.0189 24.0466 13.4231 22.5 13.4214ZM26.6667 23.9141C26.6667 25.1985 26.1399 26.4303 25.2022 27.3385C24.2645 28.2467 22.9927 28.757 21.6667 28.757C20.3406 28.757 19.0688 28.2467 18.1311 27.3385C17.1935 26.4303 16.6667 25.1985 16.6667 23.9141V19.0713C16.668 18.0014 17.1074 16.9757 17.8885 16.2191C18.6696 15.4626 19.7287 15.037 20.8333 15.0357H22.5C23.6047 15.037 24.6637 15.4626 25.4448 16.2191C26.2259 16.9757 26.6653 18.0014 26.6667 19.0713V23.9141Z" fill="#BFBFBF"/>
<path d="M21.6667 16.6499C21.4457 16.6499 21.2337 16.735 21.0775 16.8863C20.9212 17.0377 20.8334 17.243 20.8334 17.4571V19.0713C20.8334 19.2854 20.9212 19.4907 21.0775 19.6421C21.2337 19.7934 21.4457 19.8785 21.6667 19.8785C21.8877 19.8785 22.0997 19.7934 22.256 19.6421C22.4122 19.4907 22.5 19.2854 22.5 19.0713V17.4571C22.5 17.243 22.4122 17.0377 22.256 16.8863C22.0997 16.735 21.8877 16.6499 21.6667 16.6499Z" fill="#BFBFBF"/>
</svg>
