<svg width="195" height="150" viewBox="0 0 195 150" fill="none" xmlns="http://www.w3.org/2000/svg">
<path d="M54.2244 2.54545H55.2244V1.54545H54.2244V2.54545ZM54.2244 148V149H55.2244V148H54.2244ZM36.6108 148H35.6108V149H36.6108V148ZM36.6108 21.0114H37.6108V20.0114H36.6108V21.0114ZM35.7585 21.0114V20.0114H35.4568L35.2054 20.1783L35.7585 21.0114ZM0.247159 44.5909H-0.752841V46.4553L0.800321 45.424L0.247159 44.5909ZM0.247159 26.6932L-0.306038 25.8601L-0.752841 26.1568V26.6932H0.247159ZM36.6108 2.54545V1.54545H36.309L36.0576 1.7124L36.6108 2.54545ZM53.2244 2.54545V148H55.2244V2.54545H53.2244ZM54.2244 147H36.6108V149H54.2244V147ZM37.6108 148V21.0114H35.6108V148H37.6108ZM36.6108 20.0114H35.7585V22.0114H36.6108V20.0114ZM35.2054 20.1783L-0.306002 43.7578L0.800321 45.424L36.3117 21.8444L35.2054 20.1783ZM1.24716 44.5909V26.6932H-0.752841V44.5909H1.24716ZM0.800357 27.5262L37.164 3.3785L36.0576 1.7124L-0.306038 25.8601L0.800357 27.5262ZM36.6108 3.54545H54.2244V1.54545H36.6108V3.54545ZM116.156 141.253L115.541 142.041L115.544 142.044L116.156 141.253ZM98.8977 115.756L97.9556 116.091L97.9561 116.092L98.8977 115.756ZM98.8977 35.0028L97.9569 34.664L97.9561 34.6662L98.8977 35.0028ZM116.227 9.43465L116.842 10.2232L116.843 10.2227L116.227 9.43465ZM170.702 9.43465L170.084 10.2208L170.089 10.2251L170.702 9.43465ZM188.031 35.0028L187.089 35.3382L187.091 35.343L188.031 35.0028ZM188.102 115.756L189.044 116.092L189.044 116.091L188.102 115.756ZM170.844 141.253L171.456 142.044L171.459 142.041L170.844 141.253ZM168.216 119.023L167.349 118.525L168.216 119.023ZM172.974 43.0994L172.016 43.3863L172.018 43.391L172.974 43.0994ZM161.469 22.8579L160.786 23.589L160.79 23.5922L161.469 22.8579ZM118.855 31.4517L119.723 31.9491L119.724 31.9474L118.855 31.4517ZM113.955 107.375L112.997 107.663L113.955 107.375ZM125.389 127.474L124.711 128.209L124.714 128.212L125.389 127.474ZM143.5 148.989C132.992 148.989 124.1 146.134 116.768 140.462L115.544 142.044C123.27 148.02 132.607 150.989 143.5 150.989V148.989ZM116.771 140.464C109.424 134.735 103.768 126.41 99.8394 115.419L97.9561 116.092C101.982 127.355 107.831 136.029 115.541 142.041L116.771 140.464ZM99.8398 115.42C95.9113 104.383 93.9318 91.0086 93.9318 75.2727H91.9318C91.9318 91.1656 93.9296 104.78 97.9556 116.091L99.8398 115.42ZM93.9318 75.2727C93.9318 59.6321 95.9111 46.3292 99.8394 35.3394L97.9561 34.6662C93.9298 45.9302 91.9318 59.4739 91.9318 75.2727H93.9318ZM99.8386 35.3417C103.815 24.3019 109.495 15.9529 116.842 10.2232L115.612 8.6461C107.902 14.6588 102.03 23.3553 97.9569 34.664L99.8386 35.3417ZM116.843 10.2227C124.225 4.45579 133.093 1.55681 143.5 1.55681V-0.443188C132.695 -0.443188 123.382 2.5764 115.612 8.64663L116.843 10.2227ZM143.5 1.55681C153.907 1.55681 162.751 4.45578 170.084 10.2208L171.32 8.6485C163.596 2.57641 154.305 -0.443188 143.5 -0.443188V1.55681ZM170.089 10.2251C177.482 15.9542 183.161 24.3012 187.089 35.3382L188.973 34.6675C184.947 23.356 179.073 14.6576 171.314 8.64423L170.089 10.2251ZM187.091 35.343C191.065 46.3316 193.068 59.6332 193.068 75.2727H195.068C195.068 59.4729 193.046 45.9279 188.972 34.6627L187.091 35.343ZM193.068 75.2727C193.068 91.0086 191.089 104.383 187.16 115.42L189.044 116.091C193.07 104.78 195.068 91.1656 195.068 75.2727H193.068ZM187.161 115.419C183.232 126.41 177.576 134.735 170.229 140.464L171.459 142.041C179.169 136.029 185.018 127.355 189.044 116.092L187.161 115.419ZM170.232 140.462C162.9 146.134 154.008 148.989 143.5 148.989V150.989C154.393 150.989 163.73 148.02 171.456 142.044L170.232 140.462ZM143.5 135.364C154.51 135.364 163.058 130.016 169.083 119.521L167.349 118.525C161.632 128.484 153.702 133.364 143.5 133.364V135.364ZM169.083 119.521C175.079 109.076 178.023 94.2915 178.023 75.2727H176.023C176.023 94.1327 173.095 108.515 167.349 118.525L169.083 119.521ZM178.023 75.2727C178.023 62.6123 176.667 51.7836 173.931 42.8079L172.018 43.391C174.68 52.1236 176.023 62.7438 176.023 75.2727H178.023ZM173.932 42.8125C171.247 33.8452 167.336 26.9208 162.148 22.1237L160.79 23.5922C165.639 28.0754 169.399 34.6454 172.016 43.3863L173.932 42.8125ZM162.151 22.1269C156.988 17.3082 150.752 14.8977 143.5 14.8977V16.8977C150.263 16.8977 156.006 19.1274 160.786 23.589L162.151 22.1269ZM143.5 14.8977C132.575 14.8977 124.054 20.3259 117.987 30.956L119.724 31.9474C125.493 21.8389 133.403 16.8977 143.5 16.8977V14.8977ZM117.988 30.9543C111.945 41.4917 108.977 56.2989 108.977 75.2727H110.977C110.977 56.4624 113.928 42.0556 119.723 31.9491L117.988 30.9543ZM108.977 75.2727C108.977 87.9317 110.309 98.7357 112.997 107.663L114.912 107.087C112.297 98.4007 110.977 87.8031 110.977 75.2727H108.977ZM112.997 107.663C115.682 116.582 119.569 123.459 124.711 128.209L126.068 126.74C121.266 122.304 117.53 115.782 114.912 107.087L112.997 107.663ZM124.714 128.212C129.925 132.98 136.205 135.364 143.5 135.364V133.364C136.685 133.364 130.892 131.154 126.064 126.737L124.714 128.212Z" fill="url(#paint0_linear_352_1113)"/>
<defs>
<linearGradient id="paint0_linear_352_1113" x1="97" y1="-1.5" x2="97" y2="196" gradientUnits="userSpaceOnUse">
<stop stop-color="#F3A9FF"/>
<stop offset="0.157818" stop-color="#A502BF"/>
<stop offset="1" stop-color="#0F0011" stop-opacity="0"/>
</linearGradient>
</defs>
</svg>
