<svg width="221" height="150" viewBox="0 0 221 150" fill="none" xmlns="http://www.w3.org/2000/svg">
<path d="M0.963069 148H-0.036931V149H0.963069V148ZM0.963069 135.216L0.224756 134.541L-0.036931 134.828V135.216H0.963069ZM48.9744 82.6591L48.2368 81.9839L48.2361 81.9846L48.9744 82.6591ZM62.8949 66.6079L63.675 67.2336L63.6781 67.2297L62.8949 66.6079ZM70.9915 53.6818L70.0768 53.2776L70.0746 53.2827L70.9915 53.6818ZM69.9972 27.6165L69.157 28.1589L69.1619 28.1663L69.9972 27.6165ZM60.054 18.9517L60.489 18.0513L60.054 18.9517ZM31.2188 19.3778L31.7018 20.2534L31.7052 20.2515L31.2188 19.3778ZM21.6307 28.9659L20.7551 28.4828L20.7509 28.4906L21.6307 28.9659ZM18.2926 43.4545V44.4545H19.2926V43.4545H18.2926ZM1.53125 43.4545H0.53125V44.4545H1.53125V43.4545ZM7.42614 21.0114L8.27973 21.5323L7.42614 21.0114ZM23.4773 5.95454L23.0105 5.07015L23.008 5.0715L23.4773 5.95454ZM69.0739 5.95454L69.5536 5.07713L69.0739 5.95454ZM84.5568 20.5142L83.704 21.0365L84.5568 20.5142ZM87.2557 56.5938L86.3208 56.2388L86.319 56.2436L87.2557 56.5938ZM77.3125 73.5682L76.5154 72.9643L76.5147 72.9653L77.3125 73.5682ZM57.7812 96.2955L58.5117 96.9784L58.5131 96.9769L57.7812 96.2955ZM25.1108 131.239L24.3803 130.556L24.1108 130.844V131.239H25.1108ZM25.1108 132.375H24.1108V133.375H25.1108V132.375ZM92.7244 132.375H93.7244V131.375H92.7244V132.375ZM92.7244 148V149H93.7244V148H92.7244ZM1.96307 148V135.216H-0.036931V148H1.96307ZM1.70138 135.89L49.7127 83.3335L48.2361 81.9846L0.224756 134.541L1.70138 135.89ZM49.7121 83.3343C55.3555 77.1692 60.0111 71.8016 63.675 67.2336L62.1148 65.9823C58.487 70.5053 53.8623 75.8384 48.2368 81.9839L49.7121 83.3343ZM63.6781 67.2297C67.3611 62.5901 70.1124 58.2068 71.9084 54.0809L70.0746 53.2827C68.3668 57.2061 65.7203 61.4402 62.1117 65.9862L63.6781 67.2297ZM71.9062 54.086C73.7617 49.8867 74.6903 45.4877 74.6903 40.8977H72.6903C72.6903 45.2093 71.8198 49.333 70.0768 53.2776L71.9062 54.086ZM74.6903 40.8977C74.6903 35.6172 73.4167 30.9927 70.8325 27.0667L69.1619 28.1663C71.5019 31.7213 72.6903 35.951 72.6903 40.8977H74.6903ZM70.8373 27.0741C68.3177 23.1712 64.8595 20.1629 60.489 18.0513L59.6189 19.8521C63.6765 21.8125 66.847 24.5806 69.157 28.1588L70.8373 27.0741ZM60.489 18.0513C56.1235 15.9421 51.2371 14.8977 45.8494 14.8977V16.8977C50.9731 16.8977 55.5564 17.8893 59.6189 19.8521L60.489 18.0513ZM45.8494 14.8977C40.1214 14.8977 35.0714 16.088 30.7323 18.5042L31.7052 20.2515C35.6994 18.0275 40.4032 16.8977 45.8494 16.8977V14.8977ZM30.7357 18.5023C26.4511 20.8662 23.119 24.1983 20.7551 28.4828L22.5063 29.449C24.6878 25.4949 27.7478 22.435 31.7018 20.2534L30.7357 18.5023ZM20.7509 28.4906C18.4333 32.7805 17.2926 37.7792 17.2926 43.4545H19.2926C19.2926 38.0503 20.3773 33.3899 22.5105 29.4412L20.7509 28.4906ZM18.2926 42.4545H1.53125V44.4545H18.2926V42.4545ZM2.53125 43.4545C2.53125 35.0912 4.45753 27.7952 8.27973 21.5323L6.57255 20.4904C2.53489 27.1063 0.53125 34.7724 0.53125 43.4545H2.53125ZM8.27973 21.5323C12.1147 15.2485 17.3312 10.3534 23.9466 6.83757L23.008 5.0715C16.0816 8.75262 10.5974 13.8955 6.57255 20.4904L8.27973 21.5323ZM23.944 6.83892C30.6044 3.3237 38.0884 1.55681 46.4176 1.55681V-0.443188C37.796 -0.443188 29.9865 1.3884 23.0105 5.07015L23.944 6.83892ZM46.4176 1.55681C54.7958 1.55681 62.1788 3.32431 68.5941 6.83195L69.5536 5.07713C62.806 1.38779 55.0849 -0.443188 46.4176 -0.443188V1.55681ZM68.5941 6.83195C75.0299 10.3508 80.0591 15.0846 83.704 21.0365L85.4096 19.992C81.5735 13.7279 76.2807 8.75527 69.5536 5.07713L68.5941 6.83195ZM83.704 21.0365C87.3439 26.98 89.1676 33.5924 89.1676 40.8977H91.1676C91.1676 33.2409 89.2508 26.2643 85.4096 19.992L83.704 21.0365ZM89.1676 40.8977C89.1676 46.1241 88.22 51.236 86.3208 56.2388L88.1906 56.9487C90.1739 51.7242 91.1676 46.3721 91.1676 40.8977H89.1676ZM86.319 56.2436C84.4705 61.1882 81.2155 66.7602 76.5154 72.9643L78.1096 74.172C82.8792 67.8762 86.253 62.1319 88.1924 56.9439L86.319 56.2436ZM76.5147 72.9653C71.856 79.1298 65.371 86.6777 57.0494 95.614L58.5131 96.9769C66.8582 88.0155 73.394 80.4119 78.1103 74.1711L76.5147 72.9653ZM57.0508 95.6125L24.3803 130.556L25.8413 131.922L58.5117 96.9784L57.0508 95.6125ZM24.1108 131.239V132.375H26.1108V131.239H24.1108ZM25.1108 133.375H92.7244V131.375H25.1108V133.375ZM91.7244 132.375V148H93.7244V132.375H91.7244ZM92.7244 147H0.963069V149H92.7244V147ZM142.156 141.253L141.541 142.041L141.544 142.044L142.156 141.253ZM124.898 115.756L123.956 116.091L123.956 116.092L124.898 115.756ZM124.898 35.0028L123.957 34.664L123.956 34.6662L124.898 35.0028ZM142.227 9.43465L142.842 10.2232L142.843 10.2227L142.227 9.43465ZM196.702 9.43465L196.084 10.2208L196.089 10.2251L196.702 9.43465ZM214.031 35.0028L213.089 35.3382L213.091 35.343L214.031 35.0028ZM214.102 115.756L215.044 116.092L215.044 116.091L214.102 115.756ZM196.844 141.253L197.456 142.044L197.459 142.041L196.844 141.253ZM194.216 119.023L193.349 118.525L194.216 119.023ZM198.974 43.0994L198.016 43.3863L198.018 43.391L198.974 43.0994ZM187.469 22.8579L186.786 23.589L186.79 23.5922L187.469 22.8579ZM144.855 31.4517L145.723 31.9491L145.724 31.9474L144.855 31.4517ZM139.955 107.375L138.997 107.663L139.955 107.375ZM151.389 127.474L150.711 128.209L150.714 128.212L151.389 127.474ZM169.5 148.989C158.992 148.989 150.1 146.134 142.768 140.462L141.544 142.044C149.27 148.02 158.607 150.989 169.5 150.989V148.989ZM142.771 140.464C135.424 134.735 129.768 126.41 125.839 115.419L123.956 116.092C127.982 127.355 133.831 136.029 141.541 142.041L142.771 140.464ZM125.84 115.42C121.911 104.383 119.932 91.0086 119.932 75.2727H117.932C117.932 91.1656 119.93 104.78 123.956 116.091L125.84 115.42ZM119.932 75.2727C119.932 59.6321 121.911 46.3292 125.839 35.3394L123.956 34.6662C119.93 45.9302 117.932 59.4739 117.932 75.2727H119.932ZM125.839 35.3417C129.815 24.3019 135.495 15.9529 142.842 10.2232L141.612 8.6461C133.902 14.6588 128.03 23.3553 123.957 34.664L125.839 35.3417ZM142.843 10.2227C150.225 4.45579 159.093 1.55681 169.5 1.55681V-0.443188C158.695 -0.443188 149.382 2.5764 141.612 8.64663L142.843 10.2227ZM169.5 1.55681C179.907 1.55681 188.751 4.45578 196.084 10.2208L197.32 8.6485C189.596 2.57641 180.305 -0.443188 169.5 -0.443188V1.55681ZM196.089 10.2251C203.482 15.9542 209.161 24.3012 213.089 35.3382L214.973 34.6675C210.947 23.356 205.073 14.6576 197.314 8.64423L196.089 10.2251ZM213.091 35.343C217.065 46.3316 219.068 59.6332 219.068 75.2727H221.068C221.068 59.4729 219.046 45.9279 214.972 34.6627L213.091 35.343ZM219.068 75.2727C219.068 91.0086 217.089 104.383 213.16 115.42L215.044 116.091C219.07 104.78 221.068 91.1656 221.068 75.2727H219.068ZM213.161 115.419C209.232 126.41 203.576 134.735 196.229 140.464L197.459 142.041C205.169 136.029 211.018 127.355 215.044 116.092L213.161 115.419ZM196.232 140.462C188.9 146.134 180.008 148.989 169.5 148.989V150.989C180.393 150.989 189.73 148.02 197.456 142.044L196.232 140.462ZM169.5 135.364C180.51 135.364 189.058 130.016 195.083 119.521L193.349 118.525C187.632 128.484 179.702 133.364 169.5 133.364V135.364ZM195.083 119.521C201.079 109.076 204.023 94.2915 204.023 75.2727H202.023C202.023 94.1327 199.095 108.515 193.349 118.525L195.083 119.521ZM204.023 75.2727C204.023 62.6123 202.667 51.7836 199.931 42.8079L198.018 43.391C200.68 52.1236 202.023 62.7438 202.023 75.2727H204.023ZM199.932 42.8125C197.247 33.8452 193.336 26.9208 188.148 22.1237L186.79 23.5922C191.639 28.0754 195.399 34.6454 198.016 43.3863L199.932 42.8125ZM188.151 22.1269C182.988 17.3082 176.752 14.8977 169.5 14.8977V16.8977C176.263 16.8977 182.006 19.1274 186.786 23.589L188.151 22.1269ZM169.5 14.8977C158.575 14.8977 150.054 20.3259 143.987 30.956L145.724 31.9474C151.493 21.8389 159.403 16.8977 169.5 16.8977V14.8977ZM143.988 30.9543C137.945 41.4917 134.977 56.2989 134.977 75.2727H136.977C136.977 56.4624 139.928 42.0556 145.723 31.9491L143.988 30.9543ZM134.977 75.2727C134.977 87.9317 136.309 98.7357 138.997 107.663L140.912 107.087C138.297 98.4007 136.977 87.8031 136.977 75.2727H134.977ZM138.997 107.663C141.682 116.582 145.569 123.459 150.711 128.209L152.068 126.74C147.266 122.304 143.53 115.782 140.912 107.087L138.997 107.663ZM150.714 128.212C155.925 132.98 162.205 135.364 169.5 135.364V133.364C162.685 133.364 156.892 131.154 152.064 126.737L150.714 128.212Z" fill="url(#paint0_linear_352_1114)"/>
<defs>
<linearGradient id="paint0_linear_352_1114" x1="108.5" y1="-1.5" x2="108.5" y2="196" gradientUnits="userSpaceOnUse">
<stop stop-color="#F3A9FF"/>
<stop offset="0.157818" stop-color="#A502BF"/>
<stop offset="1" stop-color="#0F0011" stop-opacity="0"/>
</linearGradient>
</defs>
</svg>
